<?xml version="1.0" encoding="UTF-8" standalone="no"?>
<svg xmlns="http://www.w3.org/2000/svg" xmlns:xlink="http://www.w3.org/1999/xlink" width="397.5" height="191.25">
  <defs>
    <linearGradient id="a">
      <stop offset="0" stop-color="#70b0df"/>
      <stop offset=".5" stop-color="#1b81c5"/>
      <stop offset="1" stop-color="#4a98ce"/>
    </linearGradient>
    <linearGradient xlink:href="#a" id="b" x1="162.67442" x2="162.67442" y1="14.452718" y2="175.03487" gradientUnits="userSpaceOnUse"/>
  </defs>
  <g fill="#8c96a1" transform="translate(0 2)">
    <path fill-rule="evenodd" d="M48.822266 90.923828 12.205078 172.94141h23.949219l7.119141-17.38282h36.802734l7.11914 17.38282h23.949218L74.435547 90.923828H48.822266zm13.005859 19.337892 6.212891 15.5957 6.21289 15.59766-12.388672.0293-12.388672.0312 6.175782-15.62695 6.175781-15.62695zM226.42503 90.923828l-36.61718 82.017582h23.94922l7.11914-17.38282h36.80273l7.11914 17.38282h23.94922l-36.70898-82.017582h-25.61329zm13.00586 19.337892 6.21289 15.5957 6.21289 15.59766-12.38867.0293-12.38867.0312 6.17578-15.62695 6.17578-15.62695zm55.58022-19.620711h27.19958l17.39204 26.153451 18.43818-26.153451h26.80728l-32.29951 39.753241 34.39178 42.82998h-27.19958l-19.74585-27.92252-19.35355 27.92252h-29.03032l35.04561-42.43768z"/>
    <path d="m179.94141 55.929688-32.56055 32.02539 11.20898 10.142578L169.19336 87.4375l1.18359.002v61.154297c0 7.76349-6.25018 14.01367-14.01367 14.01367h-11.13476c-7.76349 0-14.01368-6.25018-14.01368-14.01367v-6.52734h-21.65039v8.1289c0 14.03603 11.29991 25.33594 25.33594 25.33594h28.76563c14.03602 0 25.33593-11.29991 25.33593-25.33594V87.482469l.83789.002 12.38672 10.613281 9.74024-10.142578-32.02539-32.02539z" color="#000" overflow="visible" style="isolation:auto;mix-blend-mode:normal;solid-color:#000;solid-opacity:1;marker:none"/>
    <path d="m120.2293 135.33257 32.56055-32.02539-11.20898-10.142583-10.60352 10.660153-1.18359-.002V42.668455c0-7.76349 6.25018-14.01367 14.01367-14.01367h11.13476c7.76349 0 14.01368 6.25018 14.01368 14.01367v6.52734h21.65039v-8.1289c0-14.03603-11.29991-25.33594-25.33594-25.33594h-28.76563c-14.03602 0-25.33593 11.29991-25.33593 25.33594v62.712895l-.83789-.002-12.386718-10.613293-9.74024 10.142583 32.025388 32.02539z" color="#000" overflow="visible" style="isolation:auto;mix-blend-mode:normal;solid-color:#000;solid-opacity:1;marker:none"/>
  </g>
  <path fill="url(#b)" fill-rule="evenodd" stroke="#0c4c75" stroke-width=".5" d="M136.50391 15.730469c-14.03602 0-25.33594 11.299907-25.33594 25.335937V103.7793l-.83789-.00196-12.386721-10.613278-9.740234 10.142578 32.025395 32.02539 32.56054-32.02539-11.20898-10.142578-10.60352 10.660158-1.18359-.00195V42.667969c0-7.76349 6.25018-14.013672 14.01367-14.013672h11.13477c7.76349 0 14.01367 6.250182 14.01367 14.013672v6.527343h21.65039v-8.128906c0-14.03603-11.29991-25.335937-25.33594-25.335937h-28.76562zm43.4375 40.199219-32.56055 32.02539 11.20898 10.142578L169.19336 87.4375l1.18359.001953v61.154297c0 7.76349-6.25018 14.01367-14.01367 14.01367h-11.13476c-7.76349 0-14.01368-6.25018-14.01368-14.01367v-6.52734h-21.65039v8.1289c0 14.03603 11.29991 25.33594 25.33594 25.33594h28.76563c14.03602 0 25.33593-11.29991 25.33593-25.33594V87.482422l.83789.001953 12.38672 10.613281 9.74024-10.142578-32.02539-32.02539zm115.07031 34.710937 31.64453 40.146485-35.04492 42.4375h29.02929l19.35352-27.92383 19.74609 27.92383h27.20118l-34.39258-42.83008 32.29883-39.753905h-26.80664l-18.4375 26.154295-17.39258-26.154295h-27.19922zm-246.189454.283203L12.205078 172.94141h23.949219l7.119141-17.38282h36.802734l7.11914 17.38282h23.949218L74.435547 90.923828H48.822266zm177.603514 0-36.61719 82.017582h23.94922l7.11914-17.38282h36.80274l7.11914 17.38282h23.94922l-36.70899-82.017582h-25.61328zM61.828125 110.26172l6.212891 15.5957 6.21289 15.59766-12.388672.0293-12.388672.03124 6.175782-15.62695 6.175781-15.62695zm177.603515 0 6.21289 15.5957 6.21289 15.59766-12.38867.0293-12.38867.03124 6.17578-15.62695 6.17578-15.62695z"/>
</svg>