<?xml version="1.0" encoding="iso-8859-1"?>
<!-- Generator: Adobe Illustrator 27.9.0, SVG Export Plug-In . SVG Version: 6.00 Build 0)  -->
<svg version="1.1" id="Layer_1" xmlns="http://www.w3.org/2000/svg" xmlns:xlink="http://www.w3.org/1999/xlink" x="0px" y="0px"
	 viewBox="0 0 5000 5000" style="enable-background:new 0 0 5000 5000;" xml:space="preserve">
<rect style="fill:#FFFFFF;" width="5000" height="5000"/>
<g>
	<path style="fill:#231F20;" d="M3288.297,3315.784c334.782,0,606.177-271.394,606.177-606.177s-271.394-606.177-606.177-606.177
		c-53.199,0-104.775,6.906-153.938,19.778c-19.216-171.285-106.221-322.008-233.494-424.881V1458.62h424.171l52.225,90.371
		c3.329,5.898,9.702,9.513,16.457,9.513h115.294c6.849,0,13.128-3.615,16.552-9.513l57.647-99.883
		c3.424-5.898,3.424-13.128,0-19.026l-57.647-99.883c-3.424-5.898-9.703-9.513-16.552-9.513h-115.294
		c-6.754,0-13.128,3.615-16.457,9.513l-52.225,90.371H2881.84c-10.464,0-19.025,8.562-19.025,19.025v230.216
		c-97.932-67.796-215.738-108.8-342.933-112.7V957.681l90.371-52.13c5.898-3.424,9.513-9.703,9.513-16.552V773.705
		c0-6.754-3.615-13.128-9.513-16.457l-99.883-57.647c-2.949-1.712-6.184-2.569-9.513-2.569c-3.235,0-6.564,0.856-9.513,2.569
		l-99.884,57.647c-5.898,3.329-9.513,9.703-9.513,16.457v115.294c0,6.849,3.615,13.128,9.513,16.552l90.371,52.13v599.389
		c-127.098,3.56-244.907,44.129-342.934,111.514v-228.99c0-10.464-8.466-19.025-19.025-19.025h-445.004l-52.13-90.371
		c-3.425-5.898-9.703-9.513-16.457-9.513h-115.389c-6.754,0-13.032,3.615-16.457,9.513l-57.647,99.883
		c-3.424,5.898-3.424,13.128,0,19.026l57.647,99.883c3.424,5.898,9.703,9.513,16.457,9.513h115.389
		c6.754,0,13.032-3.615,16.457-9.513l52.13-90.371h425.979v238.362c-128.196,102.901-215.906,254.183-235.206,426.227
		c-49.163-12.871-100.739-19.778-153.938-19.778c-334.782,0-606.177,271.394-606.177,606.177s271.394,606.177,606.177,606.177
		h388.288v225.596H1675.82l-52.225-90.371c-3.329-5.898-9.703-9.513-16.457-9.513h-115.294c-6.849,0-13.128,3.615-16.552,9.513
		l-57.647,99.883c-3.424,5.898-3.424,13.128,0,19.026l57.647,99.883c3.424,5.898,9.703,9.513,16.552,9.513h115.294
		c6.754,0,13.128-3.615,16.457-9.513l52.225-90.371h443.197c10.465,0,19.026-8.562,19.026-19.025v-244.622h342.933v726.535
		l-90.371,52.13c-5.898,3.425-9.513,9.702-9.513,16.552v115.294c0,6.753,3.615,13.127,9.513,16.457l99.883,57.647
		c2.949,1.712,6.184,2.569,9.513,2.569c3.235,0,6.564-0.856,9.513-2.569l99.883-57.647c5.898-3.329,9.513-9.703,9.513-16.457
		v-115.294c0-6.85-3.615-13.127-9.513-16.552l-90.371-52.13v-726.535h342.934v244.622c0,10.464,8.466,19.025,19.025,19.025h445.004
		l52.13,90.371c3.425,5.898,9.703,9.513,16.457,9.513h115.389c6.754,0,13.032-3.615,16.457-9.513l57.647-99.883
		c3.425-5.898,3.425-13.128,0-19.026l-57.647-99.883c-3.424-5.898-9.703-9.513-16.457-9.513h-115.389
		c-6.754,0-13.032,3.615-16.457,9.513l-52.13,90.371H2900.01v-225.596H3288.297z M3404.659,1358.736h93.414l46.708,80.858
		l-46.708,80.858h-93.414l-46.613-80.858L3404.659,1358.736z M1595.247,1520.453h-93.32l-46.708-80.858l46.708-80.858h93.32
		l46.707,80.858L1595.247,1520.453z M1596.198,3641.263h-93.414l-46.708-80.858l46.708-80.858h93.414l46.612,80.858
		L1596.198,3641.263z M2580.858,4121.94v93.415L2500,4261.967l-80.858-46.612v-93.415l80.858-46.707L2580.858,4121.94z
		 M3405.61,3479.547h93.32l46.708,80.858l-46.708,80.858h-93.32l-46.707-80.858L3405.61,3479.547z M2419.998,878.06v-93.415
		l80.858-46.613l80.858,46.613v93.415l-80.858,46.707L2419.998,878.06z"/>
	<g>
		<path style="fill:#FFFFFF;" d="M2114.403,2691.355l-51.465,155.864h-66.166l168.358-495.525h77.198l169.097,495.525h-68.373
			l-52.938-155.864H2114.403z M2276.881,2641.358l-48.521-142.616c-11.031-32.356-18.38-61.758-25.732-90.436h-1.473
			c-7.353,29.402-15.439,59.557-24.994,89.692l-48.525,143.36H2276.881z"/>
		<path style="fill:#FFFFFF;" d="M2484.191,2357.575c30.879-5.146,71.317-9.55,122.778-9.55c63.231,0,109.545,14.696,138.951,41.172
			c27.205,23.522,43.378,59.547,43.378,103.655c0,44.851-13.233,80.134-38.232,105.866c-33.815,36.026-88.959,54.41-151.446,54.41
			c-19.118,0-36.764-0.734-51.465-4.413v198.503h-63.965V2357.575z M2548.156,2596.517c13.967,3.679,31.613,5.146,52.933,5.146
			c77.198,0,124.25-37.494,124.25-105.866c0-65.428-46.319-97.05-116.897-97.05c-27.939,0-49.259,2.211-60.286,5.147V2596.517z"/>
		<path style="fill:#FFFFFF;" d="M2939.264,2351.694v495.525h-63.965v-495.525H2939.264z"/>
	</g>
</g>
</svg>
