<?xml version="1.0" encoding="iso-8859-1"?>
<!-- Generator: Adobe Illustrator 27.9.0, SVG Export Plug-In . SVG Version: 6.00 Build 0)  -->
<svg version="1.1" id="Layer_1" xmlns="http://www.w3.org/2000/svg" xmlns:xlink="http://www.w3.org/1999/xlink" x="0px" y="0px"
	 viewBox="0 0 278.358 70.749" style="enable-background:new 0 0 278.358 70.749;" xml:space="preserve">
<g>
	<g>
		<path style="fill:#0D61A8;" d="M107.212,62.985c-0.021,0.612-0.063,1.243-0.143,1.913l2.49-4.514l-0.274-1.472l2.499-0.382
			l0.91,6.253l1.149-3.92c0.091-0.383,0.139-0.669,0.149-0.956c0.01-0.287-0.018-0.593-0.118-1.014l2.618-0.497
			c0.096,0.535,0.157,0.995,0.14,1.472c-0.022,0.631-0.181,1.319-0.619,2.352l-2.108,5.661h-3.117l-0.655-4.226l-2.441,4.226h-3.021
			c0.119-3.94-0.024-6.406-0.298-8.988l2.595-0.401C107.166,59.925,107.269,61.359,107.212,62.985z"/>
		<path style="fill:#0D61A8;" d="M123.443,60.824c-1.208,0.65-1.656,0.899-2.75,1.568l-1.167,5.488h-2.695l1.904-9.083l2.384-0.401
			l-0.102,1.262c0.918-0.535,1.658-0.918,2.473-1.262L123.443,60.824z"/>
		<path style="fill:#0D61A8;" d="M125.043,58.778l2.786-0.382l-2.014,9.485h-2.695L125.043,58.778z M125.914,54.666l2.786-0.382
			l-0.617,2.868l-2.767,0.383L125.914,54.666z"/>
		<path style="fill:#0D61A8;" d="M132.794,60.729l-0.984,4.646c-0.022,0.096-0.045,0.191-0.047,0.249
			c-0.004,0.134,0.07,0.191,0.262,0.191c0.459,0,0.98-0.191,1.466-0.383l0.47,1.874c-0.779,0.42-1.9,0.765-2.99,0.765
			c-1.357,0-2.062-0.65-2.023-1.759c0.004-0.134,0.029-0.268,0.052-0.402l1.099-5.182h-1.376l0.458-2.161h1.377l0.46-2.238
			l2.785-0.382l-0.55,2.62h2.218l-0.611,2.161H132.794z"/>
		<path style="fill:#0D61A8;" d="M136.004,61.895c0.456-2.142,1.461-3.518,4.405-3.518c1.759,0,3.07,0.765,3.016,2.333
			c-0.063,1.817-1.029,2.658-3.348,3.346c-1.141,0.344-1.159,0.344-1.97,0.555l-0.138,0.65c-0.069,0.345-0.042,0.65,0.455,0.65
			c0.976,0,2.407-0.478,3.688-1.032l0.449,1.912c-1.153,0.707-2.951,1.282-4.595,1.282c-1.932,0-2.725-0.841-2.669-2.429
			c0.012-0.344,0.064-0.727,0.154-1.128L136.004,61.895z M140.911,60.996c0.012-0.325-0.268-0.536-0.765-0.536
			c-0.976,0-1.282,0.555-1.442,1.32l-0.137,0.65c0.463-0.115,0.674-0.153,1.234-0.326C140.536,61.895,140.891,61.551,140.911,60.996
			z"/>
		<path style="fill:#0D61A8;" d="M150.381,54.762l2.786-0.382l-2.843,13.5h-2.695L150.381,54.762z"/>
		<path style="fill:#0D61A8;" d="M153.516,61.895c0.456-2.142,1.461-3.518,4.405-3.518c1.759,0,3.07,0.765,3.016,2.333
			c-0.063,1.817-1.029,2.658-3.348,3.346c-1.141,0.344-1.159,0.344-1.97,0.555l-0.138,0.65c-0.069,0.345-0.042,0.65,0.455,0.65
			c0.976,0,2.407-0.478,3.688-1.032l0.449,1.912c-1.153,0.707-2.951,1.282-4.595,1.282c-1.932,0-2.725-0.841-2.669-2.429
			c0.012-0.344,0.064-0.727,0.154-1.128L153.516,61.895z M158.422,60.996c0.012-0.325-0.268-0.536-0.765-0.536
			c-0.976,0-1.282,0.555-1.442,1.32l-0.137,0.65c0.463-0.115,0.674-0.153,1.234-0.326C158.047,61.895,158.403,61.551,158.422,60.996
			z"/>
		<path style="fill:#0D61A8;" d="M161.16,67.46l0.586-1.989c0.698,0.249,1.493,0.478,2.507,0.478c0.898,0,0.965-0.268,1.057-0.707
			c0.091-0.42-0.169-0.65-1.201-1.205c-1.913-1.033-1.966-1.721-1.668-3.117c0.433-2.008,1.045-2.543,3.626-2.543
			c0.879,0,2,0.191,2.757,0.439l-0.512,2.027c-0.682-0.191-1.689-0.344-2.339-0.344c-0.803,0-0.922,0.096-1.035,0.592
			c-0.091,0.44,0.001,0.536,0.883,1.014c2.102,1.148,2.413,1.549,2.094,3.022c-0.456,2.104-1.097,2.945-3.889,2.945
			C163.165,68.072,161.969,67.823,161.16,67.46z"/>
		<path style="fill:#0D61A8;" d="M168.884,67.46l0.586-1.989c0.698,0.249,1.493,0.478,2.507,0.478c0.898,0,0.965-0.268,1.057-0.707
			c0.091-0.42-0.169-0.65-1.201-1.205c-1.913-1.033-1.966-1.721-1.668-3.117c0.433-2.008,1.045-2.543,3.626-2.543
			c0.879,0,2,0.191,2.757,0.439l-0.512,2.027c-0.682-0.191-1.688-0.344-2.339-0.344c-0.803,0-0.922,0.096-1.035,0.592
			c-0.091,0.44,0.001,0.536,0.883,1.014c2.102,1.148,2.413,1.549,2.094,3.022c-0.456,2.104-1.097,2.945-3.889,2.945
			C170.889,68.072,169.694,67.823,168.884,67.46z"/>
		<path style="fill:#0D61A8;" d="M176.271,69.964l1.546-2.084h-1.014l0.665-3.174h2.695l-0.729,3.404l-2.216,2.639L176.271,69.964z"
			/>
		<path style="fill:#0D61A8;" d="M191.008,67.88l-0.049-0.803c-0.688,0.555-1.659,0.995-2.998,0.995
			c-2.026,0-2.48-1.224-2.045-3.309l0.527-2.505c0.46-2.218,1.092-3.882,5.011-3.882c0.287,0,0.878,0.038,1.125,0.096l0.779-3.71
			l2.766-0.382l-2.841,13.5H191.008z M188.544,65.088c-0.113,0.498,0.013,0.727,0.49,0.727c0.956,0,1.661-0.497,2.193-0.956
			l0.871-4.149c-0.304-0.058-0.666-0.077-1.048-0.077c-1.396,0-1.709,0.746-1.912,1.645L188.544,65.088z"/>
		<path style="fill:#0D61A8;" d="M195.792,64.955c0.008-0.21,0.035-0.44,0.081-0.65l0.458-2.161
			c0.503-2.391,1.719-3.767,4.969-3.767c2.505,0,3.582,1.434,3.524,3.098c-0.008,0.211-0.035,0.44-0.081,0.67l-0.457,2.161
			c-0.48,2.238-1.604,3.768-4.988,3.768C196.927,68.072,195.734,66.656,195.792,64.955z M202.121,61.685
			c0.024-0.688-0.383-1.052-1.263-1.052c-1.014,0-1.625,0.516-1.809,1.434l-0.482,2.314c-0.024,0.134-0.048,0.268-0.052,0.382
			c-0.024,0.669,0.384,1.052,1.264,1.052c1.032,0,1.623-0.517,1.809-1.435l0.482-2.314
			C202.093,61.933,202.117,61.799,202.121,61.685z"/>
		<path style="fill:#0D61A8;" d="M221.283,61.551c0.023-0.115,0.046-0.21,0.048-0.287c0.007-0.191-0.086-0.268-0.354-0.268
			c-0.497,0-1.681,0.497-2.459,0.898l-1.261,5.986h-2.677l1.33-6.33c0.023-0.115,0.046-0.21,0.048-0.287
			c0.007-0.191-0.086-0.268-0.354-0.268c-0.497,0-1.7,0.497-2.44,0.879l-1.261,6.005h-2.695l1.904-9.083l2.384-0.401l-0.055,1.032
			c1.478-0.688,2.637-1.051,3.708-1.051c0.917,0,1.381,0.401,1.567,1.09c1.443-0.823,2.734-1.09,3.805-1.09
			c1.243,0,1.677,0.708,1.636,1.893c-0.012,0.326-0.044,0.689-0.133,1.071l-1.376,6.54h-2.696L221.283,61.551z"/>
		<path style="fill:#0D61A8;" d="M225.062,64.955c0.008-0.21,0.035-0.44,0.081-0.65l0.458-2.161
			c0.503-2.391,1.719-3.767,4.969-3.767c2.505,0,3.582,1.434,3.524,3.098c-0.008,0.211-0.035,0.44-0.081,0.67l-0.457,2.161
			c-0.481,2.238-1.605,3.768-4.988,3.768C226.197,68.072,225.003,66.656,225.062,64.955z M231.39,61.685
			c0.024-0.688-0.383-1.052-1.263-1.052c-1.014,0-1.625,0.516-1.809,1.434l-0.482,2.314c-0.024,0.134-0.048,0.268-0.052,0.382
			c-0.023,0.669,0.384,1.052,1.264,1.052c1.032,0,1.623-0.517,1.809-1.435l0.482-2.314C231.363,61.933,231.386,61.799,231.39,61.685
			z"/>
		<path style="fill:#0D61A8;" d="M241.248,60.824c-1.208,0.65-1.656,0.899-2.75,1.568l-1.167,5.488h-2.695l1.904-9.083l2.384-0.401
			l-0.102,1.262c0.918-0.535,1.658-0.918,2.473-1.262L241.248,60.824z"/>
		<path style="fill:#0D61A8;" d="M241.861,61.895c0.456-2.142,1.461-3.518,4.405-3.518c1.759,0,3.07,0.765,3.016,2.333
			c-0.063,1.817-1.029,2.658-3.349,3.346c-1.14,0.344-1.158,0.344-1.969,0.555l-0.138,0.65c-0.069,0.345-0.042,0.65,0.455,0.65
			c0.976,0,2.407-0.478,3.689-1.032l0.449,1.912c-1.153,0.707-2.951,1.282-4.595,1.282c-1.932,0-2.725-0.841-2.669-2.429
			c0.012-0.344,0.064-0.727,0.154-1.128L241.861,61.895z M246.767,60.996c0.012-0.325-0.268-0.536-0.765-0.536
			c-0.976,0-1.282,0.555-1.442,1.32l-0.137,0.65c0.463-0.115,0.674-0.153,1.234-0.326C246.392,61.895,246.748,61.551,246.767,60.996
			z"/>
		<path style="fill:#0D61A8;" d="M250.384,64.706h2.695l-0.665,3.174h-2.695L250.384,64.706z"/>
	</g>
</g>
<path style="fill:#0D61A8;" d="M3.27,13.443c-4.557,6.547-3.994,15.064-0.507,22.021c0.078,0.17,0.168,0.33,0.254,0.495
	c0.049,0.106,0.104,0.213,0.164,0.317c0.026,0.058,0.067,0.121,0.101,0.177c0.056,0.114,0.116,0.218,0.175,0.327
	c0.112,0.188,0.224,0.38,0.336,0.567c0.064,0.104,0.124,0.209,0.194,0.313c0.119,0.202,0.257,0.401,0.381,0.603
	c0.056,0.086,0.108,0.17,0.168,0.254c0.179,0.272,0.358,0.542,0.556,0.806c0,0.008,0.007,0.015,0.015,0.019
	c0.03,0.045,0.063,0.088,0.093,0.129c0.168,0.229,0.336,0.454,0.512,0.676c0.059,0.082,0.126,0.164,0.187,0.244
	c0.16,0.194,0.317,0.388,0.474,0.581c0.06,0.069,0.12,0.142,0.183,0.213c0.209,0.252,0.429,0.502,0.653,0.749
	c0,0.003,0.007,0.009,0.011,0.015c0.007,0.009,0.015,0.019,0.03,0.028c0.216,0.237,0.436,0.47,0.661,0.702
	c0.071,0.071,0.142,0.14,0.22,0.215c0.171,0.174,0.343,0.349,0.526,0.521c0.075,0.071,0.149,0.14,0.22,0.209
	c0.239,0.224,0.478,0.448,0.728,0.663c0.004,0.004,0.008,0.006,0.011,0.009c0.041,0.036,0.086,0.071,0.123,0.106
	c0.22,0.189,0.44,0.375,0.664,0.56c0.09,0.075,0.179,0.146,0.269,0.218c0.186,0.147,0.373,0.289,0.56,0.431
	c0.097,0.073,0.194,0.147,0.295,0.224c0.202,0.151,0.411,0.298,0.616,0.444c0.075,0.054,0.149,0.108,0.228,0.159
	c0.018,0.017,0.041,0.032,0.059,0.047c0.205,0.134,0.399,0.265,0.601,0.398c0.089,0.058,0.175,0.114,0.261,0.171
	c0.313,0.2,0.627,0.392,0.937,0.579c0.089,0.047,0.179,0.097,0.265,0.147c0.231,0.134,0.467,0.267,0.706,0.394
	c0.13,0.073,0.261,0.136,0.396,0.203c0.161,0.088,0.329,0.177,0.501,0.265c0.041,0.017,0.082,0.032,0.119,0.052
	c0.071,0.032,0.138,0.067,0.205,0.101c0.262,0.129,0.53,0.25,0.807,0.374c0.052,0.024,0.108,0.046,0.164,0.075
	c0.31,0.134,0.62,0.263,0.937,0.388c0.075,0.028,0.149,0.061,0.227,0.087c0.288,0.112,0.586,0.222,0.881,0.329
	c0.038,0.015,0.071,0.026,0.108,0.039c0.328,0.112,0.653,0.218,0.985,0.321c0.078,0.022,0.157,0.05,0.239,0.071
	c0.34,0.103,0.668,0.222,1.015,0.288c22.033,4.016,28.434-13.241,28.434-13.241c-5.378,7-14.922,8.85-23.962,6.793
	c-0.336-0.076-0.668-0.183-1.008-0.284c-0.079-0.022-0.168-0.048-0.247-0.076c-0.328-0.099-0.653-0.206-0.97-0.314
	c-0.045-0.015-0.093-0.031-0.138-0.05c-0.287-0.099-0.571-0.207-0.854-0.317c-0.079-0.034-0.161-0.062-0.239-0.092
	c-0.314-0.123-0.623-0.255-0.925-0.388c-0.067-0.024-0.124-0.052-0.187-0.078c-0.265-0.122-0.519-0.241-0.776-0.364
	c-0.078-0.033-0.149-0.071-0.227-0.11c-0.202-0.095-0.403-0.202-0.601-0.306c-0.138-0.071-0.273-0.136-0.403-0.209
	c-0.243-0.13-0.485-0.269-0.728-0.403c-0.075-0.051-0.157-0.094-0.243-0.14c-0.313-0.187-0.631-0.379-0.941-0.577
	c-0.089-0.056-0.172-0.112-0.254-0.17c-0.228-0.144-0.452-0.295-0.672-0.444c-0.071-0.05-0.142-0.103-0.216-0.155
	c-0.213-0.149-0.422-0.3-0.634-0.456c-0.09-0.071-0.183-0.142-0.28-0.212c-0.19-0.147-0.381-0.293-0.571-0.446
	c-0.082-0.069-0.168-0.136-0.25-0.203c-0.246-0.198-0.478-0.396-0.713-0.601c-0.022-0.024-0.056-0.045-0.082-0.065
	c-0.25-0.224-0.5-0.453-0.747-0.681c-0.075-0.071-0.138-0.136-0.212-0.204c-0.179-0.175-0.358-0.347-0.534-0.524
	c-0.075-0.074-0.142-0.144-0.213-0.214c-0.224-0.226-0.444-0.459-0.661-0.698c-0.011-0.01-0.023-0.021-0.034-0.034
	c-0.228-0.25-0.448-0.504-0.668-0.762c-0.06-0.069-0.116-0.14-0.175-0.207c-0.161-0.198-0.321-0.397-0.485-0.595
	c-0.052-0.077-0.112-0.149-0.172-0.224c-0.19-0.245-0.373-0.489-0.556-0.741C4.621,26.128,2.811,16.683,6.824,8.933"/>
<path style="fill:#0D61A8;" d="M17.417,7.925c-3.304,4.74-3.121,11.087-0.549,16.104c0.425,0.84,0.911,1.656,1.456,2.43
	c0.493,0.709,1.038,1.549,1.698,2.118c0.232,0.261,0.482,0.515,0.739,0.771c0.064,0.063,0.127,0.125,0.194,0.192
	c0.247,0.237,0.497,0.47,0.754,0.698c0.008,0.01,0.023,0.019,0.03,0.028c0.003,0.002,0.007,0.005,0.007,0.005
	c0.287,0.254,0.579,0.495,0.881,0.73c0.071,0.05,0.134,0.106,0.205,0.157c0.299,0.233,0.605,0.457,0.914,0.677
	c0.011,0.004,0.019,0.011,0.034,0.017c0.134,0.097,0.276,0.187,0.422,0.28c0.063,0.041,0.13,0.089,0.194,0.129
	c0.228,0.147,0.452,0.285,0.683,0.422c0.034,0.017,0.067,0.035,0.101,0.052c0.194,0.118,0.399,0.233,0.605,0.338
	c0.071,0.043,0.142,0.077,0.212,0.116c0.142,0.071,0.284,0.146,0.422,0.218c0.018,0.01,0.045,0.021,0.067,0.03
	c0.291,0.144,0.586,0.276,0.877,0.409c0.071,0.028,0.131,0.052,0.198,0.08c0.239,0.103,0.481,0.204,0.721,0.295
	c0.108,0.036,0.209,0.078,0.31,0.114c0.22,0.078,0.444,0.155,0.664,0.228c0.108,0.036,0.205,0.065,0.302,0.097
	c0.313,0.099,0.631,0.226,0.963,0.278c17.005,2.82,20.94-10.279,20.94-10.279c-3.542,5.103-10.399,7.532-17.714,5.633
	c-0.329-0.084-0.649-0.178-0.963-0.28c-0.101-0.026-0.19-0.058-0.287-0.091c-0.228-0.073-0.456-0.149-0.676-0.232
	c-0.101-0.037-0.205-0.075-0.306-0.114c-0.243-0.095-0.485-0.188-0.721-0.293c-0.071-0.028-0.138-0.052-0.194-0.082
	c-0.302-0.131-0.601-0.271-0.892-0.411c-0.149-0.077-0.295-0.151-0.444-0.229c-0.089-0.045-0.175-0.088-0.254-0.129
	c-0.198-0.102-0.381-0.211-0.567-0.321c-0.044-0.024-0.089-0.047-0.134-0.073c-0.228-0.138-0.463-0.276-0.679-0.42
	c-0.075-0.042-0.138-0.091-0.209-0.136c-0.149-0.095-0.295-0.19-0.448-0.293c-0.31-0.215-0.612-0.442-0.914-0.67
	c-0.071-0.058-0.138-0.11-0.206-0.166c-3.21-2.527-5.748-5.983-6.95-9.896c-1.269-4.065-0.989-8.628,1.198-12.329"/>
<path style="fill:#0D61A8;" d="M29.308,3.802c-1.948,2.859-2.135,6.411-0.792,9.564c1.426,3.352,4.341,5.981,7.738,7.226
	c0.138,0.054,0.276,0.099,0.418,0.147c0.063,0.019,0.123,0.039,0.19,0.06c0.198,0.061,0.396,0.136,0.601,0.176
	c9.395,1.814,11.94-4.821,12.624-5.797c-2.236,3.214-5.987,3.984-10.589,2.867c-0.362-0.088-0.758-0.218-1.108-0.345
	c-0.448-0.159-0.892-0.343-1.325-0.547c-0.81-0.393-1.594-0.868-2.318-1.416C30.625,12.613,28.073,6.654,30.76,1.8"/>
<path style="fill:#3B3835;" d="M246.995,17.195l0.369,1.557c0.105,0.446-0.179,0.806-0.635,0.806"/>
<path style="fill:#3B3835;" d="M217.358,14.523c-0.093,0.431-0.205,0.976-0.279,1.336l-3.251,15.215l3.419-16.029L217.358,14.523z"
	/>
<polygon style="fill:#3B3835;" points="119.963,24.705 118.167,31.063 119.963,24.707 "/>
<path style="fill:#3B3835;" d="M247.364,18.752l-0.936-3.962c-0.739-2.867-2.833-4.222-7.539-4.222h-19.794
	c-0.456,0-0.911,0.205-1.004,0.651l-7.51,35.614c-0.098,0.45-0.127,0.771-0.075,0.993c0.053,0.229,0.934,0.186,1.385,0.186h6.856
	c0.459,0,1.292,0.034,1.534-0.063c0.254-0.104,0.366-0.783,0.459-1.232l2.423-12.487l2.96-13.851c0.097-0.444,0.545-0.808,1-0.808
	l19.607-0.013C247.181,19.558,247.468,19.196,247.364,18.752"/>
<path style="fill:#3B3835;" d="M275.255,4.314c-0.459,0.005-8.695,0-8.695,0c-0.455,0-1.041,0.489-1.295,0.866l-15.263,22.455
	c-0.261,0.377-0.556,0.364-0.656-0.08l-1.128-4.921c-0.097-0.446-0.552-0.81-1.015-0.81h-9.81c-0.451,0-0.724,0.377-0.604,0.817
	l4.397,15.416c0.127,0.441,0.138,1.162,0.025,1.604l-2.051,7.808c-0.108,0.442,0.172,0.576,0.635,0.576h9.686
	c0.455,0,0.926-0.132,1.037-0.576l2.052-7.918c0.112-0.441,0.429-1.042,0.701-1.41l24.909-33.034c0.28-0.362,0.24-0.795-0.215-0.795
	L275.255,4.314z"/>
<path style="fill:#3B3835;" d="M173.121,10.599h-8.854c-0.451,0-0.914,0.159-1.004,0.606l-2.926,13.692l-2.915,13.11
	c-0.094,0.444-0.545,0.414-1.001,0.414h-5.818c-5.756,0-5.092-3.637-3.908-9.088c0.015-0.054,3.691-18.128,3.691-18.128
	c0.082-0.446-0.217-0.606-0.668-0.606h-8.436c-0.455,0-0.907,0.161-0.996,0.606l-3.394,18.115
	c-1.692,9.795-1.743,18.413,9.615,18.697c0.187,0.007,17.935,0,17.935,0c0.459,0,0.91-0.15,1.008-0.592l3.852-18.167l3.837-18.242
	C173.139,11.017,173.275,10.599,173.121,10.599z"/>
<path style="fill:#3B3835;" d="M84.937,10.568h-9.492c-0.456,0-0.915,0.108-1.015,0.556l-1.713,7.411
	c-0.097,0.438,0.194,0.789,0.653,0.789h9.088c0.459,0,0.915-0.414,1.012-0.856l1.65-7.467C85.12,11.002,85.251,10.568,84.937,10.568
	z"/>
<path style="fill:#3B3835;" d="M72.754,21.824c-0.452,0-0.915,0.36-1.012,0.806l-1.28,5.653l-2.855,13.054
	c0,0-1.519,6.94-1.665,7.374c0,0-1.279,5.011-4.335,4.81c-1.422-0.094-3.047-0.42-3.047-0.42h-0.004
	c-0.854-0.258-0.914,0.629-1.019,1.072l-1.885,8.133c-0.108,0.445,0.183,0.846,0.635,0.852c0,0,4.087,0.576,6.972,0.576h0.474
	c7.129,0,10.895-4.191,13.302-15.573l2.822-13.174l2.646-12.257c0.097-0.446-0.172-0.86-0.627-0.86"/>
<path style="fill:#3B3835;" d="M195.523,10.514c-15.967,0-19.778,9.869-21.898,19.65c-2.12,9.973-1.939,17.856,14.581,17.856h0.597
	c6.555,0,14.518,0,14.518,0c0.447-0.008,0.896-0.418,0.985-0.86l1.624-6.326c0.094-0.448-0.209-0.58-0.66-0.58H190.41
	c-5.382,0-7.309-1.658-7.121-5.381c-0.004-0.424,0.482-1.502,0.937-1.502h22.888c1.005-0.006,1.037-0.594,1.037-0.594
	C210.48,22.26,210.632,10.514,195.523,10.514 M199.732,26.183c0,0.495-1.562,0.4-1.562,0.4l-12.447-0.09
	c-0.43,0-0.553-0.603-0.583-1.034c-0.001-0.015,0.031-0.517,0.067-0.642c0.963-3.337,3.833-5.244,8.384-5.244
	c5.12,0,6.214,2.54,6.214,5.356"/>
<path style="fill:#3B3835;" d="M126.517,37.728c0,0,4.472-10.863,5.486-17.141C133.392,12.185,129.189,0,112.938,0
	C96.784,0,89.774,11.632,87.091,24.28c-2.672,12.739,0.826,23.83,16.891,23.74l24.52-0.015c0.452-0.002,0.922-0.367,1.038-0.803
	l2.067-7.871c0.112-0.444-0.168-0.805-0.627-0.807l-1.975-0.015l-1.974-0.009c-0.388-0.004-0.612-0.256-0.56-0.59
	C126.479,37.851,126.487,37.79,126.517,37.728 M118.082,31.063l-1.84,6.289c-0.127,0.441-0.646,0.735-1.101,0.735h-9.492
	c-7.204,0-8.954-5.567-7.204-13.873c1.758-8.491,5.241-13.745,12.325-14.277c9.686-0.729,11.668,6.11,9.32,13.973L118.082,31.063z"
	/>
</svg>
