<?xml version="1.0" encoding="iso-8859-1"?>
<!-- Generator: Adobe Illustrator 27.9.0, SVG Export Plug-In . SVG Version: 6.00 Build 0)  -->
<svg version="1.1" id="Camada_1" xmlns="http://www.w3.org/2000/svg" xmlns:xlink="http://www.w3.org/1999/xlink" x="0px" y="0px"
	 viewBox="0 0 513.25 213.023" style="enable-background:new 0 0 513.25 213.023;" xml:space="preserve">
<g>
	<path vector-effect="non-scaling-stroke" style="fill:none;stroke:#8B97A8;stroke-width:2;" d="M106.41,0.542
		c0.087,40.82,0.127,81.623,0.12,122.41c0,9.37,0.29,24.72,11.99,26.87c6.3,1.16,13.207,0.96,20.72-0.6
		c0.433-0.093,0.657,0.083,0.67,0.53l0.75,20.05c0.013,0.32-0.133,0.52-0.44,0.6c-12.073,3.287-24.257,3.7-36.55,1.24
		c-24.31-4.87-26.68-28.78-26.75-48.86c-0.12-32.56-0.187-65.12-0.2-97.68c0-0.3-0.147-0.457-0.44-0.47
		c-14.78-0.6-19.53,5.53-19.53,19.66c0,8.78,0,17.567,0,26.36c-0.007,7.64-0.523,13.017-1.55,16.13
		c-3.36,10.18-12.15,15.63-22.02,19.26c-0.567,0.207-0.56,0.397,0.02,0.57c14.19,4.13,23.28,11.51,23.42,27.68
		c0.093,11.34,0.143,22.68,0.15,34.02c0.01,14.61,4.92,19.61,19.74,19.49c0.327-0.007,0.49,0.157,0.49,0.49v22.74
		c0,0.32-0.16,0.48-0.48,0.48h-4.23"/>
	<path vector-effect="non-scaling-stroke" style="fill:none;stroke:#8B97A8;stroke-width:2;" d="M436.26,0.552l-0.2,23.51
		c0,0.34,0.17,0.503,0.51,0.49c14.32-0.53,20.03,4.79,19.95,19.23c-0.1,18.193-0.08,29.923,0.06,35.19
		c0.36,14.18,10.77,23.53,23.73,26.94c0.188,0.043,0.306,0.231,0.263,0.419c-0.029,0.127-0.127,0.228-0.253,0.261
		c-13.57,3.97-23.64,12.03-23.74,27.2c-0.073,11.873-0.103,23.747-0.09,35.62c0.01,14.34-6.51,18.79-19.97,18.37
		c-0.347-0.013-0.52,0.153-0.52,0.5v22.75c0,0.42,0.213,0.633,0.64,0.64c8.16,0.127,16.203-0.587,24.13-2.14"/>
	<path vector-effect="non-scaling-stroke" style="fill:none;stroke:#8B97A8;stroke-width:2;" d="M236.46,141.402
		c-26.9,15.6-71.02,18.52-72.35-24.96c-0.006-0.221,0.169-0.404,0.39-0.41c0.003,0,0.007,0,0.01,0h80.97
		c0.293,0,0.443-0.147,0.45-0.44c0.28-14.3,0.45-24.31-3.4-36.04c-6.46-19.71-21.57-31.67-41.78-33.98
		c-49.81-5.7-73.39,36.1-65.04,80.48c5.49,29.16,25.64,45.29,54.16,47.57c17.66,1.41,35.85-1.89,51.09-11.01
		c0.233-0.14,0.323-0.343,0.27-0.61l-3.98-20.24c-0.054-0.288-0.334-0.476-0.627-0.419
		C236.566,141.353,236.511,141.373,236.46,141.402"/>
	<path vector-effect="non-scaling-stroke" style="fill:none;stroke:#8B97A8;stroke-width:2;" d="M280.77,46.782
		c-12.04,2.24-24.15,10.02-27.6,22.42c-3.48,12.48-1.35,26.84,8.75,35.49c14.18,12.14,32.98,13.46,47.64,23.8
		c5.98,4.22,6.51,12.86,2.03,18.13c-11.08,13.03-44.23,1.93-56.69-4.32c-0.262-0.13-0.58-0.023-0.71,0.24
		c-0.025,0.05-0.042,0.105-0.05,0.16l-2.93,21.29c-0.047,0.342,0.125,0.676,0.43,0.83c23.07,11.58,75.41,16.98,88.18-13.7
		c4.36-10.47,4.39-23.8-1.5-33.85c-8.22-14.04-28.08-19.42-42.21-24.9c-6.673-2.587-10.773-4.553-12.3-5.9
		c-4.98-4.39-5.73-11.53-0.65-16.02c10.65-9.39,37-1.4,48.27,3.9c0.38,0.18,0.64,0.073,0.78-0.32l7.05-19.69
		c0.113-0.313,0.013-0.54-0.3-0.68C320.28,45.342,300.883,43.048,280.77,46.782"/>
	<path vector-effect="non-scaling-stroke" style="fill:none;stroke:#8B97A8;stroke-width:2;" d="M377.44,46.692
		c-22.15,3.94-34.56,22.35-28.23,44.29c1.873,6.493,5.81,11.833,11.81,16.02c13.01,9.09,28.93,12.98,41.39,19.31
		c7.513,3.82,9.96,9.387,7.34,16.7c-6.75,18.88-47.06,5.17-58.84-0.71c-0.2-0.107-0.448-0.031-0.555,0.168
		c-0.024,0.044-0.039,0.092-0.045,0.142l-2.96,21.44c-0.04,0.307,0.08,0.533,0.36,0.68c17.18,9.08,39.39,10.67,58.29,7.79
		c24.1-3.67,38.04-24.68,31.65-48.26c-5.55-20.5-33.59-26.99-50.8-34.1c-4.05-1.68-8.42-3.91-10.17-8.04
		c-2.47-5.86,0.31-11.17,6.04-13.64c12.92-5.57,32.71,0.1,44.83,5.94c0.367,0.18,0.62,0.077,0.76-0.31l6.99-19.53
		c0.207-0.573,0.03-0.98-0.53-1.22C415.97,45.455,396.86,43.232,377.44,46.692"/>
	<path vector-effect="non-scaling-stroke" style="fill:none;stroke:#8B97A8;stroke-width:2;" d="M218.21,96.792
		c-0.3-11.46-4.18-25.52-16.87-29.1c-21-5.93-35.67,9.05-36.56,29.09c-0.013,0.333,0.143,0.5,0.47,0.5h52.48
		c0.265,0,0.48-0.215,0.48-0.48C218.21,96.798,218.21,96.795,218.21,96.792"/>
</g>
<path style="fill:#FFFFFF;stroke:#CCCCCC;stroke-miterlimit:10;" d="M106.41,0.542c0.087,40.82,0.127,81.623,0.12,122.41
	c0,9.37,0.29,24.72,11.99,26.87c6.3,1.16,13.207,0.96,20.72-0.6c0.433-0.093,0.657,0.083,0.67,0.53l0.75,20.05
	c0.013,0.32-0.133,0.52-0.44,0.6c-12.073,3.287-24.257,3.7-36.55,1.24c-24.31-4.87-26.68-28.78-26.75-48.86
	c-0.12-32.56-0.187-65.12-0.2-97.68c0-0.3-0.147-0.457-0.44-0.47c-14.78-0.6-19.53,5.53-19.53,19.66c0,8.78,0,17.567,0,26.36
	c-0.007,7.64-0.523,13.017-1.55,16.13c-3.36,10.18-12.15,15.63-22.02,19.26c-0.567,0.207-0.56,0.397,0.02,0.57
	c14.19,4.13,23.28,11.51,23.42,27.68c0.093,11.34,0.143,22.68,0.15,34.02c0.01,14.61,4.92,19.61,19.74,19.49
	c0.327-0.007,0.49,0.157,0.49,0.49v22.74c0,0.32-0.16,0.48-0.48,0.48h-4.23c-21.95,0.2-44.82-4.96-45.11-32.23
	c-0.12-11.587-0.183-23.17-0.19-34.75c-0.01-19.09-7-25.59-25.9-25.66c-0.326,0-0.59-0.269-0.59-0.6v-24.25
	c0-0.315,0.255-0.57,0.57-0.57c0.003,0,0.007,0,0.01,0c18.93,0.38,25.81-5.59,25.89-24.55c0.047-12.12,0.05-24.243,0.01-36.37
	c-0.1-31.56,33.33-32.02,55.88-31.82C90.35,0.782,98.34,0.372,106.41,0.542z"/>
<path style="fill:#254A7A;" d="M106.41,0.542l329.85,0.01l-0.2,23.51c0,0.34,0.17,0.503,0.51,0.49
	c14.32-0.53,20.03,4.79,19.95,19.23c-0.1,18.193-0.08,29.923,0.06,35.19c0.36,14.18,10.77,23.53,23.73,26.94
	c0.188,0.043,0.306,0.231,0.263,0.419c-0.029,0.127-0.127,0.228-0.253,0.261c-13.57,3.97-23.64,12.03-23.74,27.2
	c-0.073,11.873-0.103,23.747-0.09,35.62c0.01,14.34-6.51,18.79-19.97,18.37c-0.347-0.013-0.52,0.153-0.52,0.5v22.75
	c0,0.42,0.213,0.633,0.64,0.64c8.16,0.127,16.203-0.587,24.13-2.14c-4.187,2.053-8.627,2.777-13.32,2.17
	c-0.322-0.039-0.649,0.039-0.92,0.22c-0.127,0.08-0.237,0.167-0.33,0.26c-0.213,0.193-0.467,0.297-0.76,0.31
	c-6.21,0.24-12.45,0.53-18.69,0.53c-113.747,0.013-227.497-0.047-341.25-0.18c-4.367-0.007-8.733-0.077-13.1-0.21
	c-0.187-0.007-0.31-0.1-0.37-0.28c-0.033-0.093-0.067-0.187-0.1-0.28c-0.047-0.133-0.01-0.233,0.11-0.3
	c0.133-0.067,0.217-0.153,0.25-0.26h4.23c0.32,0,0.48-0.16,0.48-0.48v-22.74c0-0.333-0.163-0.497-0.49-0.49
	c-14.82,0.12-19.73-4.88-19.74-19.49c-0.007-11.34-0.057-22.68-0.15-34.02c-0.14-16.17-9.23-23.55-23.42-27.68
	c-0.58-0.173-0.587-0.363-0.02-0.57c9.87-3.63,18.66-9.08,22.02-19.26c1.027-3.113,1.543-8.49,1.55-16.13c0-8.793,0-17.58,0-26.36
	c0-14.13,4.75-20.26,19.53-19.66c0.293,0.013,0.44,0.17,0.44,0.47c0.013,32.56,0.08,65.12,0.2,97.68
	c0.07,20.08,2.44,43.99,26.75,48.86c12.293,2.46,24.477,2.047,36.55-1.24c0.307-0.08,0.453-0.28,0.44-0.6l-0.75-20.05
	c-0.013-0.447-0.237-0.623-0.67-0.53c-7.513,1.56-14.42,1.76-20.72,0.6c-11.7-2.15-11.99-17.5-11.99-26.87
	C106.537,82.165,106.497,41.362,106.41,0.542z M236.46,141.402c-26.9,15.6-71.02,18.52-72.35-24.96
	c-0.006-0.221,0.169-0.404,0.39-0.41c0.003,0,0.007,0,0.01,0h80.97c0.293,0,0.443-0.147,0.45-0.44c0.28-14.3,0.45-24.31-3.4-36.04
	c-6.46-19.71-21.57-31.67-41.78-33.98c-49.81-5.7-73.39,36.1-65.04,80.48c5.49,29.16,25.64,45.29,54.16,47.57
	c17.66,1.41,35.85-1.89,51.09-11.01c0.233-0.14,0.323-0.343,0.27-0.61l-3.98-20.24c-0.054-0.288-0.334-0.476-0.627-0.419
	C236.566,141.353,236.511,141.373,236.46,141.402z M280.77,46.782c-12.04,2.24-24.15,10.02-27.6,22.42
	c-3.48,12.48-1.35,26.84,8.75,35.49c14.18,12.14,32.98,13.46,47.64,23.8c5.98,4.22,6.51,12.86,2.03,18.13
	c-11.08,13.03-44.23,1.93-56.69-4.32c-0.262-0.13-0.58-0.023-0.71,0.24c-0.025,0.05-0.042,0.105-0.05,0.16l-2.93,21.29
	c-0.047,0.342,0.125,0.676,0.43,0.83c23.07,11.58,75.41,16.98,88.18-13.7c4.36-10.47,4.39-23.8-1.5-33.85
	c-8.22-14.04-28.08-19.42-42.21-24.9c-6.673-2.587-10.773-4.553-12.3-5.9c-4.98-4.39-5.73-11.53-0.65-16.02
	c10.65-9.39,37-1.4,48.27,3.9c0.38,0.18,0.64,0.073,0.78-0.32l7.05-19.69c0.113-0.313,0.013-0.54-0.3-0.68
	C320.28,45.342,300.883,43.048,280.77,46.782z M377.44,46.692c-22.15,3.94-34.56,22.35-28.23,44.29
	c1.873,6.493,5.81,11.833,11.81,16.02c13.01,9.09,28.93,12.98,41.39,19.31c7.513,3.82,9.96,9.387,7.34,16.7
	c-6.75,18.88-47.06,5.17-58.84-0.71c-0.2-0.107-0.448-0.031-0.555,0.168c-0.024,0.044-0.039,0.092-0.045,0.142l-2.96,21.44
	c-0.04,0.307,0.08,0.533,0.36,0.68c17.18,9.08,39.39,10.67,58.29,7.79c24.1-3.67,38.04-24.68,31.65-48.26
	c-5.55-20.5-33.59-26.99-50.8-34.1c-4.05-1.68-8.42-3.91-10.17-8.04c-2.47-5.86,0.31-11.17,6.04-13.64
	c12.92-5.57,32.71,0.1,44.83,5.94c0.367,0.18,0.62,0.077,0.76-0.31l6.99-19.53c0.207-0.573,0.03-0.98-0.53-1.22
	C415.97,45.455,396.86,43.232,377.44,46.692z"/>
<path style="fill:#FFFFFF;stroke:#CCCCCC;stroke-miterlimit:10;" d="M436.26,0.552c15.58,0.41,39.45,1.05,46.93,17.52
	c2.37,5.22,3.01,11.37,3.03,17.82c0.027,11.627,0.037,23.257,0.03,34.89c0,18.55,9.3,22.4,25.84,22.82
	c0.44,0.007,0.66,0.23,0.66,0.67v24.03c0,0.387-0.313,0.7-0.7,0.7c-0.007,0-0.013,0-0.02,0c-19.02-0.62-25.68,6.86-25.75,25.43
	c-0.047,11.947-0.053,23.897-0.02,35.85c0.04,16.9-9.87,26.01-25.49,29.25c-7.927,1.553-15.97,2.267-24.13,2.14
	c-0.427-0.007-0.64-0.22-0.64-0.64v-22.75c0-0.347,0.173-0.513,0.52-0.5c13.46,0.42,19.98-4.03,19.97-18.37
	c-0.013-11.873,0.017-23.747,0.09-35.62c0.1-15.17,10.17-23.23,23.74-27.2c0.187-0.049,0.299-0.24,0.251-0.427
	c-0.033-0.127-0.133-0.224-0.261-0.253c-12.96-3.41-23.37-12.76-23.73-26.94c-0.14-5.267-0.16-16.997-0.06-35.19
	c0.08-14.44-5.63-19.76-19.95-19.23c-0.34,0.013-0.51-0.15-0.51-0.49L436.26,0.552z"/>
<path style="fill:#FFFFFF;" d="M164.11,116.442c1.33,43.48,45.45,40.56,72.35,24.96c0.261-0.145,0.588-0.055,0.732,0.2
	c0.028,0.05,0.048,0.104,0.058,0.16l3.98,20.24c0.053,0.267-0.037,0.47-0.27,0.61c-15.24,9.12-33.43,12.42-51.09,11.01
	c-28.52-2.28-48.67-18.41-54.16-47.57c-8.35-44.38,15.23-86.18,65.04-80.48c20.21,2.31,35.32,14.27,41.78,33.98
	c3.85,11.73,3.68,21.74,3.4,36.04c-0.007,0.293-0.157,0.44-0.45,0.44h-80.97c-0.221,0-0.4,0.179-0.4,0.4
	C164.11,116.435,164.11,116.438,164.11,116.442z M218.21,96.792c-0.3-11.46-4.18-25.52-16.87-29.1c-21-5.93-35.67,9.05-36.56,29.09
	c-0.013,0.333,0.143,0.5,0.47,0.5h52.48c0.265,0,0.48-0.215,0.48-0.48C218.21,96.798,218.21,96.795,218.21,96.792z"/>
<path style="fill:#FFFFFF;" d="M253.17,69.202c3.45-12.4,15.56-20.18,27.6-22.42c20.113-3.733,39.51-1.44,58.19,6.88
	c0.313,0.14,0.413,0.367,0.3,0.68l-7.05,19.69c-0.14,0.393-0.4,0.5-0.78,0.32c-11.27-5.3-37.62-13.29-48.27-3.9
	c-5.08,4.49-4.33,11.63,0.65,16.02c1.527,1.347,5.627,3.313,12.3,5.9c14.13,5.48,33.99,10.86,42.21,24.9
	c5.89,10.05,5.86,23.38,1.5,33.85c-12.77,30.68-65.11,25.28-88.18,13.7c-0.305-0.154-0.477-0.488-0.43-0.83l2.93-21.29
	c0.041-0.29,0.31-0.491,0.6-0.45c0.056,0.008,0.11,0.025,0.16,0.05c12.46,6.25,45.61,17.35,56.69,4.32
	c4.48-5.27,3.95-13.91-2.03-18.13c-14.66-10.34-33.46-11.66-47.64-23.8C251.82,96.042,249.69,81.682,253.17,69.202z"/>
<path style="fill:#FFFFFF;" d="M349.21,90.982c-6.33-21.94,6.08-40.35,28.23-44.29c19.42-3.46,38.53-1.237,57.33,6.67
	c0.56,0.24,0.737,0.647,0.53,1.22l-6.99,19.53c-0.14,0.387-0.393,0.49-0.76,0.31c-12.12-5.84-31.91-11.51-44.83-5.94
	c-5.73,2.47-8.51,7.78-6.04,13.64c1.75,4.13,6.12,6.36,10.17,8.04c17.21,7.11,45.25,13.6,50.8,34.1
	c6.39,23.58-7.55,44.59-31.65,48.26c-18.9,2.88-41.11,1.29-58.29-7.79c-0.28-0.147-0.4-0.373-0.36-0.68l2.96-21.44
	c0.029-0.225,0.234-0.384,0.458-0.355c0.05,0.006,0.098,0.022,0.142,0.045c11.78,5.88,52.09,19.59,58.84,0.71
	c2.62-7.313,0.173-12.88-7.34-16.7c-12.46-6.33-28.38-10.22-41.39-19.31C355.02,102.815,351.083,97.475,349.21,90.982z"/>
<path style="fill:#254C7D;" d="M201.34,67.692c12.69,3.58,16.57,17.64,16.87,29.1c0.006,0.265-0.205,0.484-0.47,0.49
	c-0.003,0-0.007,0-0.01,0h-52.48c-0.327,0-0.483-0.167-0.47-0.5C165.67,76.742,180.34,61.762,201.34,67.692z"/>
</svg>
