<?xml version="1.0" encoding="UTF-8" standalone="no"?>
<!DOCTYPE svg PUBLIC "-//W3C//DTD SVG 1.1//EN" "http://www.w3.org/Graphics/SVG/1.1/DTD/svg11.dtd">
<svg xmlns="http://www.w3.org/2000/svg" version="1.1" viewBox="0.00 0.00 256.00 256.00">
<g stroke-width="2.00" fill="none" stroke-linecap="butt">
<path stroke="#386f74" vector-effect="non-scaling-stroke" d="
  M 157.77 27.94
  A 4.94 4.94 0.0 0 0 152.83 23.00
  L 33.17 23.00
  A 4.94 4.94 0.0 0 0 28.23 27.94
  L 28.23 28.06
  A 4.94 4.94 0.0 0 0 33.17 33.00
  L 152.83 33.00
  A 4.94 4.94 0.0 0 0 157.77 28.06
  L 157.77 27.94"
/>
<path stroke="#273942" vector-effect="non-scaling-stroke" d="
  M 237.77 27.91
  A 4.90 4.90 0.0 0 0 232.87 23.01
  L 173.15 23.01
  A 4.90 4.90 0.0 0 0 168.25 27.91
  L 168.25 28.09
  A 4.90 4.90 0.0 0 0 173.15 32.99
  L 232.87 32.99
  A 4.90 4.90 0.0 0 0 237.77 28.09
  L 237.77 27.91"
/>
<path stroke="#824549" vector-effect="non-scaling-stroke" d="
  M 67.74 47.85
  A 4.83 4.83 0.0 0 0 62.91 43.02
  L 33.09 43.02
  A 4.83 4.83 0.0 0 0 28.26 47.85
  L 28.26 48.15
  A 4.83 4.83 0.0 0 0 33.09 52.98
  L 62.91 52.98
  A 4.83 4.83 0.0 0 0 67.74 48.15
  L 67.74 47.85"
/>
<path stroke="#8b753e" vector-effect="non-scaling-stroke" d="
  M 187.76 47.93
  A 4.93 4.93 0.0 0 0 182.83 43.00
  L 83.17 43.00
  A 4.93 4.93 0.0 0 0 78.24 47.93
  L 78.24 48.07
  A 4.93 4.93 0.0 0 0 83.17 53.00
  L 182.83 53.00
  A 4.93 4.93 0.0 0 0 187.76 48.07
  L 187.76 47.93"
/>
<path stroke="#273942" vector-effect="non-scaling-stroke" d="
  M 237.77 47.86
  A 4.83 4.83 0.0 0 0 232.94 43.03
  L 203.10 43.03
  A 4.83 4.83 0.0 0 0 198.27 47.86
  L 198.27 48.16
  A 4.83 4.83 0.0 0 0 203.10 52.99
  L 232.94 52.99
  A 4.83 4.83 0.0 0 0 237.77 48.16
  L 237.77 47.86"
/>
<path stroke="#386f74" vector-effect="non-scaling-stroke" d="
  M 107.76 67.92
  A 4.91 4.91 0.0 0 0 102.85 63.01
  L 33.15 63.01
  A 4.91 4.91 0.0 0 0 28.24 67.92
  L 28.24 68.08
  A 4.91 4.91 0.0 0 0 33.15 72.99
  L 102.85 72.99
  A 4.91 4.91 0.0 0 0 107.76 68.08
  L 107.76 67.92"
/>
<path stroke="#705f7d" vector-effect="non-scaling-stroke" d="
  M 167.75 67.87
  A 4.86 4.86 0.0 0 0 162.89 63.01
  L 123.11 63.01
  A 4.86 4.86 0.0 0 0 118.25 67.87
  L 118.25 68.13
  A 4.86 4.86 0.0 0 0 123.11 72.99
  L 162.89 72.99
  A 4.86 4.86 0.0 0 0 167.75 68.13
  L 167.75 67.87"
/>
<path stroke="#386f74" vector-effect="non-scaling-stroke" d="
  M 197.7105 67.7469
  A 4.68 4.68 0.0 0 0 193.0386 63.0588
  L 182.9786 63.0412
  A 4.68 4.68 0.0 0 0 178.2905 67.7131
  L 178.2895 68.2531
  A 4.68 4.68 0.0 0 0 182.9614 72.9412
  L 193.0214 72.9588
  A 4.68 4.68 0.0 0 0 197.7095 68.2869
  L 197.7105 67.7469"
/>
<path stroke="#273942" vector-effect="non-scaling-stroke" d="
  M 237.74 67.83
  A 4.77 4.77 0.0 0 0 232.97 63.06
  L 212.91 63.06
  A 4.77 4.77 0.0 0 0 208.14 67.83
  L 208.14 68.19
  A 4.77 4.77 0.0 0 0 212.91 72.96
  L 232.97 72.96
  A 4.77 4.77 0.0 0 0 237.74 68.19
  L 237.74 67.83"
/>
<path stroke="#8b753e" vector-effect="non-scaling-stroke" d="
  M 77.75 87.88
  A 4.87 4.87 0.0 0 0 72.88 83.01
  L 33.12 83.01
  A 4.87 4.87 0.0 0 0 28.25 87.88
  L 28.25 88.12
  A 4.87 4.87 0.0 0 0 33.12 92.99
  L 72.88 92.99
  A 4.87 4.87 0.0 0 0 77.75 88.12
  L 77.75 87.88"
/>
<path stroke="#273942" vector-effect="non-scaling-stroke" d="
  M 137.75 87.88
  A 4.85 4.85 0.0 0 0 132.90 83.03
  L 92.98 83.03
  A 4.85 4.85 0.0 0 0 88.13 87.88
  L 88.13 88.12
  A 4.85 4.85 0.0 0 0 92.98 92.97
  L 132.90 92.97
  A 4.85 4.85 0.0 0 0 137.75 88.12
  L 137.75 87.88"
/>
<path stroke="#824549" vector-effect="non-scaling-stroke" d="
  M 207.76 87.89
  A 4.88 4.88 0.0 0 0 202.88 83.01
  L 153.12 83.01
  A 4.88 4.88 0.0 0 0 148.24 87.89
  L 148.24 88.11
  A 4.88 4.88 0.0 0 0 153.12 92.99
  L 202.88 92.99
  A 4.88 4.88 0.0 0 0 207.76 88.11
  L 207.76 87.89"
/>
<path stroke="#273942" vector-effect="non-scaling-stroke" d="
  M 237.71 87.74
  A 4.65 4.65 0.0 0 0 233.06 83.09
  L 222.82 83.09
  A 4.65 4.65 0.0 0 0 218.17 87.74
  L 218.17 88.26
  A 4.65 4.65 0.0 0 0 222.82 92.91
  L 233.06 92.91
  A 4.65 4.65 0.0 0 0 237.71 88.26
  L 237.71 87.74"
/>
<path stroke="#705f7d" vector-effect="non-scaling-stroke" d="
  M 77.75 107.87
  A 4.86 4.86 0.0 0 0 72.89 103.01
  L 33.11 103.01
  A 4.86 4.86 0.0 0 0 28.25 107.87
  L 28.25 108.13
  A 4.86 4.86 0.0 0 0 33.11 112.99
  L 72.89 112.99
  A 4.86 4.86 0.0 0 0 77.75 108.13
  L 77.75 107.87"
/>
<path stroke="#273942" vector-effect="non-scaling-stroke" d="
  M 137.74 107.88
  A 4.86 4.86 0.0 0 0 132.88 103.02
  L 93.12 103.02
  A 4.86 4.86 0.0 0 0 88.26 107.88
  L 88.26 108.12
  A 4.86 4.86 0.0 0 0 93.12 112.98
  L 132.88 112.98
  A 4.86 4.86 0.0 0 0 137.74 108.12
  L 137.74 107.88"
/>
<path stroke="#8b753e" vector-effect="non-scaling-stroke" d="
  M 207.76 107.90
  A 4.89 4.89 0.0 0 0 202.87 103.01
  L 153.13 103.01
  A 4.89 4.89 0.0 0 0 148.24 107.90
  L 148.24 108.10
  A 4.89 4.89 0.0 0 0 153.13 112.99
  L 202.87 112.99
  A 4.89 4.89 0.0 0 0 207.76 108.10
  L 207.76 107.90"
/>
<path stroke="#273942" vector-effect="non-scaling-stroke" d="
  M 237.84 107.75
  A 4.64 4.64 0.0 0 0 233.20 103.11
  L 222.80 103.11
  A 4.64 4.64 0.0 0 0 218.16 107.75
  L 218.16 108.25
  A 4.64 4.64 0.0 0 0 222.80 112.89
  L 233.20 112.89
  A 4.64 4.64 0.0 0 0 237.84 108.25
  L 237.84 107.75"
/>
<path stroke="#824549" vector-effect="non-scaling-stroke" d="
  M 47.72 127.73
  A 4.68 4.68 0.0 0 0 43.04 123.05
  L 32.96 123.05
  A 4.68 4.68 0.0 0 0 28.28 127.73
  L 28.28 128.27
  A 4.68 4.68 0.0 0 0 32.96 132.95
  L 43.04 132.95
  A 4.68 4.68 0.0 0 0 47.72 128.27
  L 47.72 127.73"
/>
<path stroke="#8b753e" vector-effect="non-scaling-stroke" d="
  M 97.75 127.85
  A 4.83 4.83 0.0 0 0 92.92 123.02
  L 63.10 123.02
  A 4.83 4.83 0.0 0 0 58.27 127.85
  L 58.27 128.15
  A 4.83 4.83 0.0 0 0 63.10 132.98
  L 92.92 132.98
  A 4.83 4.83 0.0 0 0 97.75 128.15
  L 97.75 127.85"
/>
<path stroke="#386f74" vector-effect="non-scaling-stroke" d="
  M 197.76 127.93
  A 4.92 4.92 0.0 0 0 192.84 123.01
  L 113.16 123.01
  A 4.92 4.92 0.0 0 0 108.24 127.93
  L 108.24 128.07
  A 4.92 4.92 0.0 0 0 113.16 132.99
  L 192.84 132.99
  A 4.92 4.92 0.0 0 0 197.76 128.07
  L 197.76 127.93"
/>
<path stroke="#273942" vector-effect="non-scaling-stroke" d="
  M 237.7303 127.8558
  A 4.76 4.76 0.0 0 0 232.9786 123.0875
  L 212.9186 123.0525
  A 4.76 4.76 0.0 0 0 208.1503 127.8042
  L 208.1497 128.1642
  A 4.76 4.76 0.0 0 0 212.9014 132.9325
  L 232.9614 132.9675
  A 4.76 4.76 0.0 0 0 237.7297 128.2158
  L 237.7303 127.8558"
/>
<path stroke="#386f74" vector-effect="non-scaling-stroke" d="
  M 77.75 147.87
  A 4.86 4.86 0.0 0 0 72.89 143.01
  L 33.11 143.01
  A 4.86 4.86 0.0 0 0 28.25 147.87
  L 28.25 148.13
  A 4.86 4.86 0.0 0 0 33.11 152.99
  L 72.89 152.99
  A 4.86 4.86 0.0 0 0 77.75 148.13
  L 77.75 147.87"
/>
<path stroke="#824549" vector-effect="non-scaling-stroke" d="
  M 137.75 147.87
  A 4.86 4.86 0.0 0 0 132.89 143.01
  L 93.11 143.01
  A 4.86 4.86 0.0 0 0 88.25 147.87
  L 88.25 148.13
  A 4.86 4.86 0.0 0 0 93.11 152.99
  L 132.89 152.99
  A 4.86 4.86 0.0 0 0 137.75 148.13
  L 137.75 147.87"
/>
<path stroke="#705f7d" vector-effect="non-scaling-stroke" d="
  M 187.74 147.85
  A 4.83 4.83 0.0 0 0 182.91 143.02
  L 153.09 143.02
  A 4.83 4.83 0.0 0 0 148.26 147.85
  L 148.26 148.15
  A 4.83 4.83 0.0 0 0 153.09 152.98
  L 182.91 152.98
  A 4.83 4.83 0.0 0 0 187.74 148.15
  L 187.74 147.85"
/>
<path stroke="#273942" vector-effect="non-scaling-stroke" d="
  M 237.7497 147.8254
  A 4.82 4.82 0.0 0 0 232.9213 143.0138
  L 202.9414 143.0662
  A 4.82 4.82 0.0 0 0 198.1298 147.8946
  L 198.1303 148.1746
  A 4.82 4.82 0.0 0 0 202.9587 152.9862
  L 232.9386 152.9338
  A 4.82 4.82 0.0 0 0 237.7502 148.1054
  L 237.7497 147.8254"
/>
<path stroke="#705f7d" vector-effect="non-scaling-stroke" d="
  M 47.71 167.73
  A 4.68 4.68 0.0 0 0 43.03 163.05
  L 32.97 163.05
  A 4.68 4.68 0.0 0 0 28.29 167.73
  L 28.29 168.27
  A 4.68 4.68 0.0 0 0 32.97 172.95
  L 43.03 172.95
  A 4.68 4.68 0.0 0 0 47.71 168.27
  L 47.71 167.73"
/>
<path stroke="#8b753e" vector-effect="non-scaling-stroke" d="
  M 157.76 167.92
  A 4.92 4.92 0.0 0 0 152.84 163.00
  L 63.16 163.00
  A 4.92 4.92 0.0 0 0 58.24 167.92
  L 58.24 168.08
  A 4.92 4.92 0.0 0 0 63.16 173.00
  L 152.84 173.00
  A 4.92 4.92 0.0 0 0 157.76 168.08
  L 157.76 167.92"
/>
<path stroke="#273942" vector-effect="non-scaling-stroke" d="
  M 237.78 167.79
  A 4.78 4.78 0.0 0 0 233.00 163.01
  L 173.04 163.01
  A 4.78 4.78 0.0 0 0 168.26 167.79
  L 168.26 168.21
  A 4.78 4.78 0.0 0 0 173.04 172.99
  L 233.00 172.99
  A 4.78 4.78 0.0 0 0 237.78 168.21
  L 237.78 167.79"
/>
<path stroke="#705f7d" vector-effect="non-scaling-stroke" d="
  M 97.76 187.91
  A 4.90 4.90 0.0 0 0 92.86 183.01
  L 33.14 183.01
  A 4.90 4.90 0.0 0 0 28.24 187.91
  L 28.24 188.09
  A 4.90 4.90 0.0 0 0 33.14 192.99
  L 92.86 192.99
  A 4.90 4.90 0.0 0 0 97.76 188.09
  L 97.76 187.91"
/>
<path stroke="#273942" vector-effect="non-scaling-stroke" d="
  M 237.77 187.94
  A 4.93 4.93 0.0 0 0 232.84 183.01
  L 113.04 183.01
  A 4.93 4.93 0.0 0 0 108.11 187.94
  L 108.11 188.06
  A 4.93 4.93 0.0 0 0 113.04 192.99
  L 232.84 192.99
  A 4.93 4.93 0.0 0 0 237.77 188.06
  L 237.77 187.94"
/>
<path stroke="#386f74" vector-effect="non-scaling-stroke" d="
  M 57.73 207.81
  A 4.78 4.78 0.0 0 0 52.95 203.03
  L 33.05 203.03
  A 4.78 4.78 0.0 0 0 28.27 207.81
  L 28.27 208.19
  A 4.78 4.78 0.0 0 0 33.05 212.97
  L 52.95 212.97
  A 4.78 4.78 0.0 0 0 57.73 208.19
  L 57.73 207.81"
/>
<path stroke="#8b753e" vector-effect="non-scaling-stroke" d="
  M 97.74 207.81
  A 4.79 4.79 0.0 0 0 92.95 203.02
  L 73.05 203.02
  A 4.79 4.79 0.0 0 0 68.26 207.81
  L 68.26 208.19
  A 4.79 4.79 0.0 0 0 73.05 212.98
  L 92.95 212.98
  A 4.79 4.79 0.0 0 0 97.74 208.19
  L 97.74 207.81"
/>
<path stroke="#273942" vector-effect="non-scaling-stroke" d="
  M 237.78 207.88
  A 4.86 4.86 0.0 0 0 232.92 203.02
  L 113.12 203.02
  A 4.86 4.86 0.0 0 0 108.26 207.88
  L 108.26 208.14
  A 4.86 4.86 0.0 0 0 113.12 213.00
  L 232.92 213.00
  A 4.86 4.86 0.0 0 0 237.78 208.14
  L 237.78 207.88"
/>
<path stroke="#824549" vector-effect="non-scaling-stroke" d="
  M 97.76 227.91
  A 4.90 4.90 0.0 0 0 92.86 223.01
  L 33.14 223.01
  A 4.90 4.90 0.0 0 0 28.24 227.91
  L 28.24 228.09
  A 4.90 4.90 0.0 0 0 33.14 232.99
  L 92.86 232.99
  A 4.90 4.90 0.0 0 0 97.76 228.09
  L 97.76 227.91"
/>
<path stroke="#273942" vector-effect="non-scaling-stroke" d="
  M 237.93 227.94
  A 4.93 4.93 0.0 0 0 233.00 223.01
  L 113.02 223.01
  A 4.93 4.93 0.0 0 0 108.09 227.94
  L 108.09 228.06
  A 4.93 4.93 0.0 0 0 113.02 232.99
  L 233.00 232.99
  A 4.93 4.93 0.0 0 0 237.93 228.06
  L 237.93 227.94"
/>
</g>
<path fill="#1a2b34" d="
  M 0.00 0.00
  L 256.00 0.00
  L 256.00 256.00
  L 0.00 256.00
  L 0.00 0.00
  Z
  M 157.77 27.94
  A 4.94 4.94 0.0 0 0 152.83 23.00
  L 33.17 23.00
  A 4.94 4.94 0.0 0 0 28.23 27.94
  L 28.23 28.06
  A 4.94 4.94 0.0 0 0 33.17 33.00
  L 152.83 33.00
  A 4.94 4.94 0.0 0 0 157.77 28.06
  L 157.77 27.94
  Z
  M 237.77 27.91
  A 4.90 4.90 0.0 0 0 232.87 23.01
  L 173.15 23.01
  A 4.90 4.90 0.0 0 0 168.25 27.91
  L 168.25 28.09
  A 4.90 4.90 0.0 0 0 173.15 32.99
  L 232.87 32.99
  A 4.90 4.90 0.0 0 0 237.77 28.09
  L 237.77 27.91
  Z
  M 67.74 47.85
  A 4.83 4.83 0.0 0 0 62.91 43.02
  L 33.09 43.02
  A 4.83 4.83 0.0 0 0 28.26 47.85
  L 28.26 48.15
  A 4.83 4.83 0.0 0 0 33.09 52.98
  L 62.91 52.98
  A 4.83 4.83 0.0 0 0 67.74 48.15
  L 67.74 47.85
  Z
  M 187.76 47.93
  A 4.93 4.93 0.0 0 0 182.83 43.00
  L 83.17 43.00
  A 4.93 4.93 0.0 0 0 78.24 47.93
  L 78.24 48.07
  A 4.93 4.93 0.0 0 0 83.17 53.00
  L 182.83 53.00
  A 4.93 4.93 0.0 0 0 187.76 48.07
  L 187.76 47.93
  Z
  M 237.77 47.86
  A 4.83 4.83 0.0 0 0 232.94 43.03
  L 203.10 43.03
  A 4.83 4.83 0.0 0 0 198.27 47.86
  L 198.27 48.16
  A 4.83 4.83 0.0 0 0 203.10 52.99
  L 232.94 52.99
  A 4.83 4.83 0.0 0 0 237.77 48.16
  L 237.77 47.86
  Z
  M 107.76 67.92
  A 4.91 4.91 0.0 0 0 102.85 63.01
  L 33.15 63.01
  A 4.91 4.91 0.0 0 0 28.24 67.92
  L 28.24 68.08
  A 4.91 4.91 0.0 0 0 33.15 72.99
  L 102.85 72.99
  A 4.91 4.91 0.0 0 0 107.76 68.08
  L 107.76 67.92
  Z
  M 167.75 67.87
  A 4.86 4.86 0.0 0 0 162.89 63.01
  L 123.11 63.01
  A 4.86 4.86 0.0 0 0 118.25 67.87
  L 118.25 68.13
  A 4.86 4.86 0.0 0 0 123.11 72.99
  L 162.89 72.99
  A 4.86 4.86 0.0 0 0 167.75 68.13
  L 167.75 67.87
  Z
  M 197.7105 67.7469
  A 4.68 4.68 0.0 0 0 193.0386 63.0588
  L 182.9786 63.0412
  A 4.68 4.68 0.0 0 0 178.2905 67.7131
  L 178.2895 68.2531
  A 4.68 4.68 0.0 0 0 182.9614 72.9412
  L 193.0214 72.9588
  A 4.68 4.68 0.0 0 0 197.7095 68.2869
  L 197.7105 67.7469
  Z
  M 237.74 67.83
  A 4.77 4.77 0.0 0 0 232.97 63.06
  L 212.91 63.06
  A 4.77 4.77 0.0 0 0 208.14 67.83
  L 208.14 68.19
  A 4.77 4.77 0.0 0 0 212.91 72.96
  L 232.97 72.96
  A 4.77 4.77 0.0 0 0 237.74 68.19
  L 237.74 67.83
  Z
  M 77.75 87.88
  A 4.87 4.87 0.0 0 0 72.88 83.01
  L 33.12 83.01
  A 4.87 4.87 0.0 0 0 28.25 87.88
  L 28.25 88.12
  A 4.87 4.87 0.0 0 0 33.12 92.99
  L 72.88 92.99
  A 4.87 4.87 0.0 0 0 77.75 88.12
  L 77.75 87.88
  Z
  M 137.75 87.88
  A 4.85 4.85 0.0 0 0 132.90 83.03
  L 92.98 83.03
  A 4.85 4.85 0.0 0 0 88.13 87.88
  L 88.13 88.12
  A 4.85 4.85 0.0 0 0 92.98 92.97
  L 132.90 92.97
  A 4.85 4.85 0.0 0 0 137.75 88.12
  L 137.75 87.88
  Z
  M 207.76 87.89
  A 4.88 4.88 0.0 0 0 202.88 83.01
  L 153.12 83.01
  A 4.88 4.88 0.0 0 0 148.24 87.89
  L 148.24 88.11
  A 4.88 4.88 0.0 0 0 153.12 92.99
  L 202.88 92.99
  A 4.88 4.88 0.0 0 0 207.76 88.11
  L 207.76 87.89
  Z
  M 237.71 87.74
  A 4.65 4.65 0.0 0 0 233.06 83.09
  L 222.82 83.09
  A 4.65 4.65 0.0 0 0 218.17 87.74
  L 218.17 88.26
  A 4.65 4.65 0.0 0 0 222.82 92.91
  L 233.06 92.91
  A 4.65 4.65 0.0 0 0 237.71 88.26
  L 237.71 87.74
  Z
  M 77.75 107.87
  A 4.86 4.86 0.0 0 0 72.89 103.01
  L 33.11 103.01
  A 4.86 4.86 0.0 0 0 28.25 107.87
  L 28.25 108.13
  A 4.86 4.86 0.0 0 0 33.11 112.99
  L 72.89 112.99
  A 4.86 4.86 0.0 0 0 77.75 108.13
  L 77.75 107.87
  Z
  M 137.74 107.88
  A 4.86 4.86 0.0 0 0 132.88 103.02
  L 93.12 103.02
  A 4.86 4.86 0.0 0 0 88.26 107.88
  L 88.26 108.12
  A 4.86 4.86 0.0 0 0 93.12 112.98
  L 132.88 112.98
  A 4.86 4.86 0.0 0 0 137.74 108.12
  L 137.74 107.88
  Z
  M 207.76 107.90
  A 4.89 4.89 0.0 0 0 202.87 103.01
  L 153.13 103.01
  A 4.89 4.89 0.0 0 0 148.24 107.90
  L 148.24 108.10
  A 4.89 4.89 0.0 0 0 153.13 112.99
  L 202.87 112.99
  A 4.89 4.89 0.0 0 0 207.76 108.10
  L 207.76 107.90
  Z
  M 237.84 107.75
  A 4.64 4.64 0.0 0 0 233.20 103.11
  L 222.80 103.11
  A 4.64 4.64 0.0 0 0 218.16 107.75
  L 218.16 108.25
  A 4.64 4.64 0.0 0 0 222.80 112.89
  L 233.20 112.89
  A 4.64 4.64 0.0 0 0 237.84 108.25
  L 237.84 107.75
  Z
  M 47.72 127.73
  A 4.68 4.68 0.0 0 0 43.04 123.05
  L 32.96 123.05
  A 4.68 4.68 0.0 0 0 28.28 127.73
  L 28.28 128.27
  A 4.68 4.68 0.0 0 0 32.96 132.95
  L 43.04 132.95
  A 4.68 4.68 0.0 0 0 47.72 128.27
  L 47.72 127.73
  Z
  M 97.75 127.85
  A 4.83 4.83 0.0 0 0 92.92 123.02
  L 63.10 123.02
  A 4.83 4.83 0.0 0 0 58.27 127.85
  L 58.27 128.15
  A 4.83 4.83 0.0 0 0 63.10 132.98
  L 92.92 132.98
  A 4.83 4.83 0.0 0 0 97.75 128.15
  L 97.75 127.85
  Z
  M 197.76 127.93
  A 4.92 4.92 0.0 0 0 192.84 123.01
  L 113.16 123.01
  A 4.92 4.92 0.0 0 0 108.24 127.93
  L 108.24 128.07
  A 4.92 4.92 0.0 0 0 113.16 132.99
  L 192.84 132.99
  A 4.92 4.92 0.0 0 0 197.76 128.07
  L 197.76 127.93
  Z
  M 237.7303 127.8558
  A 4.76 4.76 0.0 0 0 232.9786 123.0875
  L 212.9186 123.0525
  A 4.76 4.76 0.0 0 0 208.1503 127.8042
  L 208.1497 128.1642
  A 4.76 4.76 0.0 0 0 212.9014 132.9325
  L 232.9614 132.9675
  A 4.76 4.76 0.0 0 0 237.7297 128.2158
  L 237.7303 127.8558
  Z
  M 77.75 147.87
  A 4.86 4.86 0.0 0 0 72.89 143.01
  L 33.11 143.01
  A 4.86 4.86 0.0 0 0 28.25 147.87
  L 28.25 148.13
  A 4.86 4.86 0.0 0 0 33.11 152.99
  L 72.89 152.99
  A 4.86 4.86 0.0 0 0 77.75 148.13
  L 77.75 147.87
  Z
  M 137.75 147.87
  A 4.86 4.86 0.0 0 0 132.89 143.01
  L 93.11 143.01
  A 4.86 4.86 0.0 0 0 88.25 147.87
  L 88.25 148.13
  A 4.86 4.86 0.0 0 0 93.11 152.99
  L 132.89 152.99
  A 4.86 4.86 0.0 0 0 137.75 148.13
  L 137.75 147.87
  Z
  M 187.74 147.85
  A 4.83 4.83 0.0 0 0 182.91 143.02
  L 153.09 143.02
  A 4.83 4.83 0.0 0 0 148.26 147.85
  L 148.26 148.15
  A 4.83 4.83 0.0 0 0 153.09 152.98
  L 182.91 152.98
  A 4.83 4.83 0.0 0 0 187.74 148.15
  L 187.74 147.85
  Z
  M 237.7497 147.8254
  A 4.82 4.82 0.0 0 0 232.9213 143.0138
  L 202.9414 143.0662
  A 4.82 4.82 0.0 0 0 198.1298 147.8946
  L 198.1303 148.1746
  A 4.82 4.82 0.0 0 0 202.9587 152.9862
  L 232.9386 152.9338
  A 4.82 4.82 0.0 0 0 237.7502 148.1054
  L 237.7497 147.8254
  Z
  M 47.71 167.73
  A 4.68 4.68 0.0 0 0 43.03 163.05
  L 32.97 163.05
  A 4.68 4.68 0.0 0 0 28.29 167.73
  L 28.29 168.27
  A 4.68 4.68 0.0 0 0 32.97 172.95
  L 43.03 172.95
  A 4.68 4.68 0.0 0 0 47.71 168.27
  L 47.71 167.73
  Z
  M 157.76 167.92
  A 4.92 4.92 0.0 0 0 152.84 163.00
  L 63.16 163.00
  A 4.92 4.92 0.0 0 0 58.24 167.92
  L 58.24 168.08
  A 4.92 4.92 0.0 0 0 63.16 173.00
  L 152.84 173.00
  A 4.92 4.92 0.0 0 0 157.76 168.08
  L 157.76 167.92
  Z
  M 237.78 167.79
  A 4.78 4.78 0.0 0 0 233.00 163.01
  L 173.04 163.01
  A 4.78 4.78 0.0 0 0 168.26 167.79
  L 168.26 168.21
  A 4.78 4.78 0.0 0 0 173.04 172.99
  L 233.00 172.99
  A 4.78 4.78 0.0 0 0 237.78 168.21
  L 237.78 167.79
  Z
  M 97.76 187.91
  A 4.90 4.90 0.0 0 0 92.86 183.01
  L 33.14 183.01
  A 4.90 4.90 0.0 0 0 28.24 187.91
  L 28.24 188.09
  A 4.90 4.90 0.0 0 0 33.14 192.99
  L 92.86 192.99
  A 4.90 4.90 0.0 0 0 97.76 188.09
  L 97.76 187.91
  Z
  M 237.77 187.94
  A 4.93 4.93 0.0 0 0 232.84 183.01
  L 113.04 183.01
  A 4.93 4.93 0.0 0 0 108.11 187.94
  L 108.11 188.06
  A 4.93 4.93 0.0 0 0 113.04 192.99
  L 232.84 192.99
  A 4.93 4.93 0.0 0 0 237.77 188.06
  L 237.77 187.94
  Z
  M 57.73 207.81
  A 4.78 4.78 0.0 0 0 52.95 203.03
  L 33.05 203.03
  A 4.78 4.78 0.0 0 0 28.27 207.81
  L 28.27 208.19
  A 4.78 4.78 0.0 0 0 33.05 212.97
  L 52.95 212.97
  A 4.78 4.78 0.0 0 0 57.73 208.19
  L 57.73 207.81
  Z
  M 97.74 207.81
  A 4.79 4.79 0.0 0 0 92.95 203.02
  L 73.05 203.02
  A 4.79 4.79 0.0 0 0 68.26 207.81
  L 68.26 208.19
  A 4.79 4.79 0.0 0 0 73.05 212.98
  L 92.95 212.98
  A 4.79 4.79 0.0 0 0 97.74 208.19
  L 97.74 207.81
  Z
  M 237.78 207.88
  A 4.86 4.86 0.0 0 0 232.92 203.02
  L 113.12 203.02
  A 4.86 4.86 0.0 0 0 108.26 207.88
  L 108.26 208.14
  A 4.86 4.86 0.0 0 0 113.12 213.00
  L 232.92 213.00
  A 4.86 4.86 0.0 0 0 237.78 208.14
  L 237.78 207.88
  Z
  M 97.76 227.91
  A 4.90 4.90 0.0 0 0 92.86 223.01
  L 33.14 223.01
  A 4.90 4.90 0.0 0 0 28.24 227.91
  L 28.24 228.09
  A 4.90 4.90 0.0 0 0 33.14 232.99
  L 92.86 232.99
  A 4.90 4.90 0.0 0 0 97.76 228.09
  L 97.76 227.91
  Z
  M 237.93 227.94
  A 4.93 4.93 0.0 0 0 233.00 223.01
  L 113.02 223.01
  A 4.93 4.93 0.0 0 0 108.09 227.94
  L 108.09 228.06
  A 4.93 4.93 0.0 0 0 113.02 232.99
  L 233.00 232.99
  A 4.93 4.93 0.0 0 0 237.93 228.06
  L 237.93 227.94
  Z"
/>
<rect fill="#56b3b4" x="28.23" y="23.00" width="129.54" height="10.00" rx="4.94"/>
<rect fill="#334650" x="168.25" y="23.01" width="69.52" height="9.98" rx="4.90"/>
<rect fill="#ea5e5e" x="28.26" y="43.02" width="39.48" height="9.96" rx="4.83"/>
<rect fill="#fbbf47" x="78.24" y="43.00" width="109.52" height="10.00" rx="4.93"/>
<rect fill="#334650" x="198.27" y="43.03" width="39.50" height="9.96" rx="4.83"/>
<rect fill="#56b3b4" x="28.24" y="63.01" width="79.52" height="9.98" rx="4.91"/>
<rect fill="#c693c6" x="118.25" y="63.01" width="49.50" height="9.98" rx="4.86"/>
<rect fill="#56b3b4" x="-9.71" y="-4.95" transform="translate(188.00,68.00) rotate(0.1)" width="19.42" height="9.90" rx="4.68"/>
<rect fill="#334650" x="208.14" y="63.06" width="29.60" height="9.90" rx="4.77"/>
<rect fill="#fbbf47" x="28.25" y="83.01" width="49.50" height="9.98" rx="4.87"/>
<rect fill="#334650" x="88.13" y="83.03" width="49.62" height="9.94" rx="4.85"/>
<rect fill="#ea5e5e" x="148.24" y="83.01" width="59.52" height="9.98" rx="4.88"/>
<rect fill="#334650" x="218.17" y="83.09" width="19.54" height="9.82" rx="4.65"/>
<rect fill="#c693c6" x="28.25" y="103.01" width="49.50" height="9.98" rx="4.86"/>
<rect fill="#334650" x="88.26" y="103.02" width="49.48" height="9.96" rx="4.86"/>
<rect fill="#fbbf47" x="148.24" y="103.01" width="59.52" height="9.98" rx="4.89"/>
<rect fill="#334650" x="218.16" y="103.11" width="19.68" height="9.78" rx="4.64"/>
<rect fill="#ea5e5e" x="28.28" y="123.05" width="19.44" height="9.90" rx="4.68"/>
<rect fill="#fbbf47" x="58.27" y="123.02" width="39.48" height="9.96" rx="4.83"/>
<rect fill="#56b3b4" x="108.24" y="123.01" width="89.52" height="9.98" rx="4.92"/>
<rect fill="#334650" x="-14.79" y="-4.94" transform="translate(222.94,128.01) rotate(0.1)" width="29.58" height="9.88" rx="4.76"/>
<rect fill="#56b3b4" x="28.25" y="143.01" width="49.50" height="9.98" rx="4.86"/>
<rect fill="#ea5e5e" x="88.25" y="143.01" width="49.50" height="9.98" rx="4.86"/>
<rect fill="#c693c6" x="148.26" y="143.02" width="39.48" height="9.96" rx="4.83"/>
<rect fill="#334650" x="-19.81" y="-4.96" transform="translate(217.94,148.00) rotate(-0.1)" width="39.62" height="9.92" rx="4.82"/>
<rect fill="#c693c6" x="28.29" y="163.05" width="19.42" height="9.90" rx="4.68"/>
<rect fill="#fbbf47" x="58.24" y="163.00" width="99.52" height="10.00" rx="4.92"/>
<rect fill="#334650" x="168.26" y="163.01" width="69.52" height="9.98" rx="4.78"/>
<rect fill="#c693c6" x="28.24" y="183.01" width="69.52" height="9.98" rx="4.90"/>
<rect fill="#334650" x="108.11" y="183.01" width="129.66" height="9.98" rx="4.93"/>
<rect fill="#56b3b4" x="28.27" y="203.03" width="29.46" height="9.94" rx="4.78"/>
<rect fill="#fbbf47" x="68.26" y="203.02" width="29.48" height="9.96" rx="4.79"/>
<rect fill="#334650" x="108.26" y="203.02" width="129.52" height="9.98" rx="4.86"/>
<rect fill="#ea5e5e" x="28.24" y="223.01" width="69.52" height="9.98" rx="4.90"/>
<rect fill="#334650" x="108.09" y="223.01" width="129.84" height="9.98" rx="4.93"/>
</svg>
