<?xml version="1.0" encoding="UTF-8" standalone="no"?>
<!DOCTYPE svg PUBLIC "-//W3C//DTD SVG 1.1//EN" "http://www.w3.org/Graphics/SVG/1.1/DTD/svg11.dtd">
<svg xmlns="http://www.w3.org/2000/svg" version="1.1" viewBox="0.00 0.00 318.00 318.00">
<g stroke-width="2.00" fill="none" stroke-linecap="butt">
<path stroke="#ea8dc6" vector-effect="non-scaling-stroke" d="
  M 194.83 51.02
  Q 194.74 57.63 191.54 63.07
  A 1.52 1.52 0.0 0 0 192.19 65.21
  L 196.81 67.43
  Q 197.34 67.69 197.47 67.11
  L 201.17 51.02"
/>
<path stroke="#c65c9c" vector-effect="non-scaling-stroke" d="
  M 207.97 57.96
  Q 207.49 59.31 206.43 59.76
  Q 206.04 59.92 206.04 60.34
  Q 205.99 62.57 204.56 64.34
  Q 204.27 64.69 204.14 65.14
  L 203.46 67.47
  Q 203.31 67.97 202.81 68.09
  Q 200.84 68.60 199.03 67.75
  A 1.12 1.11 21.2 0 0 197.50 68.42
  L 197.25 69.21"
/>
<path stroke="#ea8dc6" vector-effect="non-scaling-stroke" d="
  M 197.25 69.21
  Q 195.63 69.12 195.37 70.05"
/>
<path stroke="#c65c9c" vector-effect="non-scaling-stroke" d="
  M 195.37 70.05
  Q 194.95 68.31 194.15 67.95"
/>
<path stroke="#c65c9c" vector-effect="non-scaling-stroke" d="
  M 191.03 66.31
  Q 190.64 63.91 188.74 62.09
  A 0.59 0.58 28.3 0 1 188.57 61.54
  L 189.49 56.89
  Q 189.58 56.45 189.84 56.09
  Q 191.37 53.96 189.94 51.06"
/>
<path stroke="#c65c9c" vector-effect="non-scaling-stroke" d="
  M 186.70 115.89
  Q 183.60 115.48 180.75 116.86
  A 0.81 0.80 57.5 0 1 179.76 116.63
  Q 179.03 115.72 177.79 116.00
  A 0.76 0.76 0.0 0 1 177.29 114.58
  Q 179.67 113.39 181.07 111.16
  A 0.43 0.43 0.0 0 0 180.70 110.50
  L 180.00 110.50
  Q 179.54 110.50 179.28 110.88
  C 177.85 112.97 175.50 113.87 174.01 115.11
  Q 169.46 118.88 165.06 122.87
  C 161.90 125.74 163.84 128.63 167.05 130.24
  Q 168.88 131.15 170.52 132.43"
/>
<path stroke="#db8961" vector-effect="non-scaling-stroke" d="
  M 170.52 132.43
  C 166.69 133.67 164.08 130.97 162.26 128.03"
/>
<path stroke="#ce6a51" vector-effect="non-scaling-stroke" d="
  M 162.26 128.03
  Q 161.56 125.97 161.90 124.19"
/>
<path stroke="#db8961" vector-effect="non-scaling-stroke" d="
  M 161.90 124.19
  L 166.18 119.48"
/>
<path stroke="#db8f78" vector-effect="non-scaling-stroke" d="
  M 166.18 119.48
  L 174.95 112.21"
/>
<path stroke="#db8961" vector-effect="non-scaling-stroke" d="
  M 174.95 112.21
  Q 175.09 112.19 175.24 112.17"
/>
<path stroke="#db7bb5" vector-effect="non-scaling-stroke" d="
  M 195.37 70.05
  L 194.13 76.33
  Q 194.09 76.50 193.95 76.60
  L 193.73 76.74
  Q 193.29 77.03 193.26 77.55
  C 193.01 81.22 191.81 84.70 190.97 88.37
  Q 190.41 90.81 189.26 94.03
  Q 188.43 96.37 191.15 96.61
  Q 191.57 96.64 191.64 96.22
  Q 192.17 93.15 193.59 90.34
  Q 193.78 89.95 193.76 89.52
  Q 193.69 88.19 194.67 87.41
  A 1.08 1.05 77.4 0 0 195.06 86.78
  L 196.20 81.26
  Q 196.27 80.95 196.52 80.77
  Q 196.74 80.60 196.79 80.31
  C 197.39 76.92 199.09 74.42 199.51 70.74
  Q 199.56 70.26 199.12 70.06
  L 197.25 69.21"
/>
<path stroke="#ffce4d" vector-effect="non-scaling-stroke" d="
  M 174.95 112.21
  Q 174.39 109.72 172.98 108.29
  Q 172.62 107.91 172.20 108.24
  C 167.69 111.77 160.55 119.17 154.84 113.76
  A 1.80 1.80 0.0 0 0 152.49 113.65
  Q 139.27 124.06 127.79 135.79
  C 125.20 138.44 122.24 140.84 119.52 143.50
  C 117.34 145.62 114.25 147.42 112.01 149.98
  Q 111.62 150.43 111.89 150.64
  Q 112.13 150.83 112.78 150.93"
/>
<path stroke="#f2a927" vector-effect="non-scaling-stroke" d="
  M 108.10 143.54
  Q 110.47 141.80 112.65 139.93
  Q 122.93 131.17 133.62 122.93
  Q 142.46 116.12 149.58 109.35
  Q 151.20 107.81 152.95 107.67"
/>
<path stroke="#f2a927" vector-effect="non-scaling-stroke" d="
  M 161.90 124.19
  L 130.72 149.35
  Q 130.35 149.65 130.22 150.11
  Q 130.12 150.49 129.69 150.94"
/>
<path stroke="#ffce4d" vector-effect="non-scaling-stroke" d="
  M 166.18 119.48
  Q 163.15 119.19 160.71 123.34
  Q 160.45 123.78 159.98 123.97
  Q 156.37 125.48 153.48 127.95
  C 147.77 132.84 142.12 137.56 135.51 141.44
  Q 129.07 145.20 124.14 150.87"
/>
<path stroke="#ea9b72" vector-effect="non-scaling-stroke" d="
  M 182.86 122.18
  Q 177.61 128.32 170.52 132.43"
/>
<path stroke="#ffce4d" vector-effect="non-scaling-stroke" d="
  M 183.49 124.66
  C 178.04 126.78 171.40 137.76 164.76 133.02
  A 1.14 1.12 55.2 0 0 163.80 132.84
  C 160.18 133.77 158.72 136.37 156.00 138.19
  Q 153.87 139.62 152.88 140.65
  Q 148.70 145.03 144.07 148.94
  Q 143.73 149.23 143.75 149.67
  Q 143.75 149.83 143.75 149.98
  Q 143.75 150.40 143.34 150.28
  Q 143.00 150.16 142.65 150.38
  Q 142.41 150.54 142.76 150.99"
/>
<path stroke="#f2a927" vector-effect="non-scaling-stroke" d="
  M 131.33 150.94
  C 132.14 149.50 134.03 148.75 135.22 147.66
  C 142.93 140.63 151.36 134.70 159.16 127.66
  C 160.30 126.63 161.50 126.60 162.26 128.03"
/>
<path stroke="#db8961" vector-effect="non-scaling-stroke" d="
  M 175.18 103.78
  C 171.82 106.84 163.12 115.90 158.32 114.02
  Q 154.23 112.43 152.95 107.67"
/>
<path stroke="#ce6a51" vector-effect="non-scaling-stroke" d="
  M 152.95 107.67
  Q 152.56 106.59 153.83 104.49"
/>
<path stroke="#db8961" vector-effect="non-scaling-stroke" d="
  M 153.83 104.49
  Q 154.92 102.36 156.09 101.95"
/>
<path stroke="#f2a927" vector-effect="non-scaling-stroke" d="
  M 153.83 104.49
  L 151.78 105.99"
/>
<path stroke="#ffce4d" vector-effect="non-scaling-stroke" d="
  M 151.78 105.99
  Q 151.71 104.48 150.32 104.24
  Q 149.84 104.16 149.42 104.43
  C 144.20 107.76 140.55 112.01 134.30 107.49
  A 1.99 1.99 0.0 0 0 131.77 107.66
  L 107.82 130.21"
/>
<path stroke="#f2af3e" vector-effect="non-scaling-stroke" d="
  M 151.78 105.99
  C 146.98 110.03 142.36 114.28 137.52 118.07
  Q 122.94 129.46 108.64 141.17
  A 0.26 0.26 0.0 0 1 108.41 141.23
  Q 108.25 141.19 107.97 141.27"
/>
<path stroke="#ea9b72" vector-effect="non-scaling-stroke" d="
  M 155.33 96.97
  Q 149.48 103.64 142.91 107.44"
/>
<path stroke="#c65c9c" vector-effect="non-scaling-stroke" d="
  M 159.52 89.71
  Q 158.45 88.91 157.94 87.51
  Q 157.76 87.01 158.09 86.58
  L 158.78 85.71
  Q 159.09 85.32 158.72 84.98
  L 156.82 83.26
  A 0.80 0.78 50.5 0 0 155.88 83.16
  C 153.79 84.35 151.64 85.07 149.80 86.59
  C 146.81 89.05 130.29 99.69 136.44 104.56
  Q 139.09 106.66 142.91 107.44"
/>
<path stroke="#db8961" vector-effect="non-scaling-stroke" d="
  M 142.91 107.44
  C 136.74 109.62 133.75 104.66 132.17 99.76"
/>
<path stroke="#c65c9c" vector-effect="non-scaling-stroke" d="
  M 191.38 99.78
  C 186.82 95.57 184.50 105.79 184.22 108.34
  A 0.21 0.16 -36.7 0 1 184.19 108.44
  L 181.15 114.14
  Q 180.79 114.80 181.54 114.76
  C 186.35 114.53 190.66 104.82 191.75 101.14
  A 1.36 1.34 -60.7 0 0 191.38 99.78"
/>
<path stroke="#c65c9c" vector-effect="non-scaling-stroke" d="
  M 159.47 112.71
  C 163.53 113.39 174.91 101.25 177.76 98.22
  Q 178.11 97.85 178.08 97.34
  L 177.75 92.33
  Q 177.56 89.54 174.93 90.47
  Q 169.55 92.38 165.61 96.06
  Q 164.19 97.39 162.47 98.37
  C 159.41 100.13 158.96 102.78 157.00 104.70
  C 153.84 107.77 155.46 112.04 159.47 112.71"
/>
</g>
<path fill="#4a4a4a" d="
  M 0.00 0.00
  L 318.00 0.00
  L 318.00 318.00
  L 0.00 318.00
  L 0.00 0.00
  Z
  M 314.00 4.26
  A 0.26 0.26 0.0 0 0 313.74 4.00
  L 4.26 4.00
  A 0.26 0.26 0.0 0 0 4.00 4.26
  L 4.00 313.74
  A 0.26 0.26 0.0 0 0 4.26 314.00
  L 313.74 314.00
  A 0.26 0.26 0.0 0 0 314.00 313.74
  L 314.00 4.26
  Z"
/>
<path fill="#d56ead" d="
  M 194.83 51.02
  Q 194.74 57.63 191.54 63.07
  A 1.52 1.52 0.0 0 0 192.19 65.21
  L 196.81 67.43
  Q 197.34 67.69 197.47 67.11
  L 201.17 51.02
  L 207.46 51.02
  Q 207.98 51.02 207.98 51.54
  L 207.97 57.96
  Q 207.49 59.31 206.43 59.76
  Q 206.04 59.92 206.04 60.34
  Q 205.99 62.57 204.56 64.34
  Q 204.27 64.69 204.14 65.14
  L 203.46 67.47
  Q 203.31 67.97 202.81 68.09
  Q 200.84 68.60 199.03 67.75
  A 1.12 1.11 21.2 0 0 197.50 68.42
  L 197.25 69.21
  Q 195.63 69.12 195.37 70.05
  Q 194.95 68.31 194.15 67.95
  L 191.03 66.31
  Q 190.64 63.91 188.74 62.09
  A 0.59 0.58 28.3 0 1 188.57 61.54
  L 189.49 56.89
  Q 189.58 56.45 189.84 56.09
  Q 191.37 53.96 189.94 51.06
  L 194.83 51.02
  Z"
/>
<path fill="#ffacdf" d="
  M 194.83 51.02
  L 201.17 51.02
  L 197.47 67.11
  Q 197.34 67.69 196.81 67.43
  L 192.19 65.21
  A 1.52 1.52 0.0 0 1 191.54 63.07
  Q 194.74 57.63 194.83 51.02
  Z"
/>
<path fill="#b74a8b" d="
  M 189.94 51.06
  Q 191.37 53.96 189.84 56.09
  Q 189.58 56.45 189.49 56.89
  L 188.57 61.54
  A 0.59 0.58 28.3 0 0 188.74 62.09
  Q 190.64 63.91 191.03 66.31
  C 184.33 63.10 188.64 56.14 189.94 51.06
  Z"
/>
<path fill="#b74a8b" d="
  M 207.97 57.96
  L 207.99 69.25
  A 0.83 0.82 89.3 0 1 207.19 70.08
  L 201.88 70.25
  Q 201.38 70.27 201.24 70.74
  Q 197.65 82.71 193.88 94.56
  Q 193.30 96.39 193.08 99.71
  Q 192.67 105.95 188.23 110.64
  A 1.51 1.46 -17.6 0 0 187.87 111.31
  L 186.70 115.89
  Q 183.60 115.48 180.75 116.86
  A 0.81 0.80 57.5 0 1 179.76 116.63
  Q 179.03 115.72 177.79 116.00
  A 0.76 0.76 0.0 0 1 177.29 114.58
  Q 179.67 113.39 181.07 111.16
  A 0.43 0.43 0.0 0 0 180.70 110.50
  L 180.00 110.50
  Q 179.54 110.50 179.28 110.88
  C 177.85 112.97 175.50 113.87 174.01 115.11
  Q 169.46 118.88 165.06 122.87
  C 161.90 125.74 163.84 128.63 167.05 130.24
  Q 168.88 131.15 170.52 132.43
  C 166.69 133.67 164.08 130.97 162.26 128.03
  Q 161.56 125.97 161.90 124.19
  L 166.18 119.48
  L 174.95 112.21
  Q 175.09 112.19 175.24 112.17
  L 182.04 107.96
  Q 182.48 107.68 182.54 107.17
  Q 183.17 101.56 187.11 97.56
  Q 187.48 97.18 187.60 96.66
  L 194.15 67.95
  Q 194.95 68.31 195.37 70.05
  L 194.13 76.33
  Q 194.09 76.50 193.95 76.60
  L 193.73 76.74
  Q 193.29 77.03 193.26 77.55
  C 193.01 81.22 191.81 84.70 190.97 88.37
  Q 190.41 90.81 189.26 94.03
  Q 188.43 96.37 191.15 96.61
  Q 191.57 96.64 191.64 96.22
  Q 192.17 93.15 193.59 90.34
  Q 193.78 89.95 193.76 89.52
  Q 193.69 88.19 194.67 87.41
  A 1.08 1.05 77.4 0 0 195.06 86.78
  L 196.20 81.26
  Q 196.27 80.95 196.52 80.77
  Q 196.74 80.60 196.79 80.31
  C 197.39 76.92 199.09 74.42 199.51 70.74
  Q 199.56 70.26 199.12 70.06
  L 197.25 69.21
  L 197.50 68.42
  A 1.12 1.11 21.2 0 1 199.03 67.75
  Q 200.84 68.60 202.81 68.09
  Q 203.31 67.97 203.46 67.47
  L 204.14 65.14
  Q 204.27 64.69 204.56 64.34
  Q 205.99 62.57 206.04 60.34
  Q 206.04 59.92 206.43 59.76
  Q 207.49 59.31 207.97 57.96
  Z
  M 191.38 99.78
  C 186.82 95.57 184.50 105.79 184.22 108.34
  A 0.21 0.16 -36.7 0 1 184.19 108.44
  L 181.15 114.14
  Q 180.79 114.80 181.54 114.76
  C 186.35 114.53 190.66 104.82 191.75 101.14
  A 1.36 1.34 -60.7 0 0 191.38 99.78
  Z"
/>
<path fill="#ffacdf" d="
  M 197.25 69.21
  L 199.12 70.06
  Q 199.56 70.26 199.51 70.74
  C 199.09 74.42 197.39 76.92 196.79 80.31
  Q 196.74 80.60 196.52 80.77
  Q 196.27 80.95 196.20 81.26
  L 195.06 86.78
  A 1.08 1.05 77.4 0 1 194.67 87.41
  Q 193.69 88.19 193.76 89.52
  Q 193.78 89.95 193.59 90.34
  Q 192.17 93.15 191.64 96.22
  Q 191.57 96.64 191.15 96.61
  Q 188.43 96.37 189.26 94.03
  Q 190.41 90.81 190.97 88.37
  C 191.81 84.70 193.01 81.22 193.26 77.55
  Q 193.29 77.03 193.73 76.74
  L 193.95 76.60
  Q 194.09 76.50 194.13 76.33
  L 195.37 70.05
  Q 195.63 69.12 197.25 69.21
  Z"
/>
<path fill="#b74a8b" d="
  M 159.52 89.71
  Q 158.45 88.91 157.94 87.51
  Q 157.76 87.01 158.09 86.58
  L 158.78 85.71
  Q 159.09 85.32 158.72 84.98
  L 156.82 83.26
  A 0.80 0.78 50.5 0 0 155.88 83.16
  C 153.79 84.35 151.64 85.07 149.80 86.59
  C 146.81 89.05 130.29 99.69 136.44 104.56
  Q 139.09 106.66 142.91 107.44
  C 136.74 109.62 133.75 104.66 132.17 99.76
  C 135.92 95.75 151.94 80.90 157.18 81.78
  C 160.93 82.40 160.74 86.78 159.52 89.71
  Z"
/>
<path fill="#4a4a4a" d="
  M 259.99 109.38
  L 224.76 87.23
  A 0.38 0.38 0.0 0 1 224.64 86.70
  L 227.41 82.43
  A 0.38 0.38 0.0 0 1 227.93 82.32
  L 265.57 105.68
  A 0.38 0.38 0.0 0 1 265.75 106.00
  L 265.75 113.39
  A 0.38 0.38 0.0 0 1 265.57 113.71
  L 228.36 137.04
  A 0.38 0.38 0.0 0 1 227.85 136.95
  L 224.67 132.63
  A 0.38 0.38 0.0 0 1 224.78 132.08
  L 259.99 110.02
  A 0.38 0.38 0.0 0 0 259.99 109.38
  Z"
/>
<path fill="#4a4a4a" d="
  M 79.42 133.98
  L 76.40 137.88
  A 0.48 0.48 0.0 0 1 75.76 137.99
  L 38.73 114.79
  A 0.48 0.48 0.0 0 1 38.50 114.38
  L 38.50 106.93
  A 0.48 0.48 0.0 0 1 38.73 106.52
  L 76.10 83.34
  A 0.48 0.48 0.0 0 1 76.76 83.48
  L 79.54 87.78
  A 0.48 0.48 0.0 0 1 79.39 88.45
  L 44.23 110.29
  A 0.48 0.48 0.0 0 0 44.23 111.10
  L 79.29 133.28
  A 0.48 0.48 0.0 0 1 79.42 133.98
  Z"
/>
<path fill="#d56ead" d="
  M 159.52 89.71
  Q 158.17 93.68 155.33 96.97
  Q 149.48 103.64 142.91 107.44
  Q 139.09 106.66 136.44 104.56
  C 130.29 99.69 146.81 89.05 149.80 86.59
  C 151.64 85.07 153.79 84.35 155.88 83.16
  A 0.80 0.78 50.5 0 1 156.82 83.26
  L 158.72 84.98
  Q 159.09 85.32 158.78 85.71
  L 158.09 86.58
  Q 157.76 87.01 157.94 87.51
  Q 158.45 88.91 159.52 89.71
  Z"
/>
<path fill="#b74a8b" d="
  M 175.18 103.78
  C 171.82 106.84 163.12 115.90 158.32 114.02
  Q 154.23 112.43 152.95 107.67
  Q 152.56 106.59 153.83 104.49
  Q 154.92 102.36 156.09 101.95
  C 160.16 98.17 173.07 86.60 178.03 87.56
  C 184.80 88.87 178.26 99.87 175.96 102.43
  Q 175.28 103.18 175.18 103.78
  Z
  M 159.47 112.71
  C 163.53 113.39 174.91 101.25 177.76 98.22
  Q 178.11 97.85 178.08 97.34
  L 177.75 92.33
  Q 177.56 89.54 174.93 90.47
  Q 169.55 92.38 165.61 96.06
  Q 164.19 97.39 162.47 98.37
  C 159.41 100.13 158.96 102.78 157.00 104.70
  C 153.84 107.77 155.46 112.04 159.47 112.71
  Z"
/>
<path fill="#d56ead" d="
  M 177.76 98.22
  C 174.91 101.25 163.53 113.39 159.47 112.71
  C 155.46 112.04 153.84 107.77 157.00 104.70
  C 158.96 102.78 159.41 100.13 162.47 98.37
  Q 164.19 97.39 165.61 96.06
  Q 169.55 92.38 174.93 90.47
  Q 177.56 89.54 177.75 92.33
  L 178.08 97.34
  Q 178.11 97.85 177.76 98.22
  Z"
/>
<path fill="#ffc736" d="
  M 155.33 96.97
  L 156.09 101.95
  Q 154.92 102.36 153.83 104.49
  L 151.78 105.99
  Q 151.71 104.48 150.32 104.24
  Q 149.84 104.16 149.42 104.43
  C 144.20 107.76 140.55 112.01 134.30 107.49
  A 1.99 1.99 0.0 0 0 131.77 107.66
  L 107.82 130.21
  L 108.08 119.83
  Q 108.09 119.29 108.51 118.95
  L 132.17 99.76
  C 133.75 104.66 136.74 109.62 142.91 107.44
  Q 149.48 103.64 155.33 96.97
  Z"
/>
<path fill="#d56ead" d="
  M 191.38 99.78
  A 1.36 1.34 -60.7 0 1 191.75 101.14
  C 190.66 104.82 186.35 114.53 181.54 114.76
  Q 180.79 114.80 181.15 114.14
  L 184.19 108.44
  A 0.21 0.16 -36.7 0 0 184.22 108.34
  C 184.50 105.79 186.82 95.57 191.38 99.78
  Z"
/>
<path fill="#ffc736" d="
  M 175.18 103.78
  Q 176.39 107.82 175.24 112.17
  Q 175.09 112.19 174.95 112.21
  Q 174.39 109.72 172.98 108.29
  Q 172.62 107.91 172.20 108.24
  C 167.69 111.77 160.55 119.17 154.84 113.76
  A 1.80 1.80 0.0 0 0 152.49 113.65
  Q 139.27 124.06 127.79 135.79
  C 125.20 138.44 122.24 140.84 119.52 143.50
  C 117.34 145.62 114.25 147.42 112.01 149.98
  Q 111.62 150.43 111.89 150.64
  Q 112.13 150.83 112.78 150.93
  L 108.67 150.93
  Q 108.08 150.93 108.08 150.33
  L 108.10 143.54
  Q 110.47 141.80 112.65 139.93
  Q 122.93 131.17 133.62 122.93
  Q 142.46 116.12 149.58 109.35
  Q 151.20 107.81 152.95 107.67
  Q 154.23 112.43 158.32 114.02
  C 163.12 115.90 171.82 106.84 175.18 103.78
  Z"
/>
<path fill="#ffd464" d="
  M 151.78 105.99
  C 146.98 110.03 142.36 114.28 137.52 118.07
  Q 122.94 129.46 108.64 141.17
  A 0.26 0.26 0.0 0 1 108.41 141.23
  Q 108.25 141.19 107.97 141.27
  L 107.82 130.21
  L 131.77 107.66
  A 1.99 1.99 0.0 0 1 134.30 107.49
  C 140.55 112.01 144.20 107.76 149.42 104.43
  Q 149.84 104.16 150.32 104.24
  Q 151.71 104.48 151.78 105.99
  Z"
/>
<path fill="#e48a17" d="
  M 153.83 104.49
  Q 152.56 106.59 152.95 107.67
  Q 151.20 107.81 149.58 109.35
  Q 142.46 116.12 133.62 122.93
  Q 122.93 131.17 112.65 139.93
  Q 110.47 141.80 108.10 143.54
  L 107.97 141.27
  Q 108.25 141.19 108.41 141.23
  A 0.26 0.26 0.0 0 0 108.64 141.17
  Q 122.94 129.46 137.52 118.07
  C 142.36 114.28 146.98 110.03 151.78 105.99
  L 153.83 104.49
  Z"
/>
<path fill="#ffd464" d="
  M 174.95 112.21
  L 166.18 119.48
  Q 163.15 119.19 160.71 123.34
  Q 160.45 123.78 159.98 123.97
  Q 156.37 125.48 153.48 127.95
  C 147.77 132.84 142.12 137.56 135.51 141.44
  Q 129.07 145.20 124.14 150.87
  L 112.78 150.93
  Q 112.13 150.83 111.89 150.64
  Q 111.62 150.43 112.01 149.98
  C 114.25 147.42 117.34 145.62 119.52 143.50
  C 122.24 140.84 125.20 138.44 127.79 135.79
  Q 139.27 124.06 152.49 113.65
  A 1.80 1.80 0.0 0 1 154.84 113.76
  C 160.55 119.17 167.69 111.77 172.20 108.24
  Q 172.62 107.91 172.98 108.29
  Q 174.39 109.72 174.95 112.21
  Z"
/>
<path fill="#d56ead" d="
  M 186.70 115.89
  L 182.86 122.18
  Q 177.61 128.32 170.52 132.43
  Q 168.88 131.15 167.05 130.24
  C 163.84 128.63 161.90 125.74 165.06 122.87
  Q 169.46 118.88 174.01 115.11
  C 175.50 113.87 177.85 112.97 179.28 110.88
  Q 179.54 110.50 180.00 110.50
  L 180.70 110.50
  A 0.43 0.43 0.0 0 1 181.07 111.16
  Q 179.67 113.39 177.29 114.58
  A 0.76 0.76 0.0 0 0 177.79 116.00
  Q 179.03 115.72 179.76 116.63
  A 0.81 0.80 57.5 0 0 180.75 116.86
  Q 183.60 115.48 186.70 115.89
  Z"
/>
<path fill="#ffc736" d="
  M 166.18 119.48
  L 161.90 124.19
  L 130.72 149.35
  Q 130.35 149.65 130.22 150.11
  Q 130.12 150.49 129.69 150.94
  L 124.14 150.87
  Q 129.07 145.20 135.51 141.44
  C 142.12 137.56 147.77 132.84 153.48 127.95
  Q 156.37 125.48 159.98 123.97
  Q 160.45 123.78 160.71 123.34
  Q 163.15 119.19 166.18 119.48
  Z"
/>
<path fill="#ffc736" d="
  M 182.86 122.18
  Q 183.56 123.71 183.49 124.66
  C 178.04 126.78 171.40 137.76 164.76 133.02
  A 1.14 1.12 55.2 0 0 163.80 132.84
  C 160.18 133.77 158.72 136.37 156.00 138.19
  Q 153.87 139.62 152.88 140.65
  Q 148.70 145.03 144.07 148.94
  Q 143.73 149.23 143.75 149.67
  Q 143.75 149.83 143.75 149.98
  Q 143.75 150.40 143.34 150.28
  Q 143.00 150.16 142.65 150.38
  Q 142.41 150.54 142.76 150.99
  L 131.33 150.94
  C 132.14 149.50 134.03 148.75 135.22 147.66
  C 142.93 140.63 151.36 134.70 159.16 127.66
  C 160.30 126.63 161.50 126.60 162.26 128.03
  C 164.08 130.97 166.69 133.67 170.52 132.43
  Q 177.61 128.32 182.86 122.18
  Z"
/>
<path fill="#e48a17" d="
  M 161.90 124.19
  Q 161.56 125.97 162.26 128.03
  C 161.50 126.60 160.30 126.63 159.16 127.66
  C 151.36 134.70 142.93 140.63 135.22 147.66
  C 134.03 148.75 132.14 149.50 131.33 150.94
  L 129.69 150.94
  Q 130.12 150.49 130.22 150.11
  Q 130.35 149.65 130.72 149.35
  L 161.90 124.19
  Z"
/>
<path fill="#ffd464" d="
  M 183.49 124.66
  C 184.64 134.22 173.24 145.12 166.10 150.70
  Q 165.72 151.00 165.23 151.00
  L 142.76 150.99
  Q 142.41 150.54 142.65 150.38
  Q 143.00 150.16 143.34 150.28
  Q 143.75 150.40 143.75 149.98
  Q 143.75 149.83 143.75 149.67
  Q 143.73 149.23 144.07 148.94
  Q 148.70 145.03 152.88 140.65
  Q 153.87 139.62 156.00 138.19
  C 158.72 136.37 160.18 133.77 163.80 132.84
  A 1.14 1.12 55.2 0 1 164.76 133.02
  C 171.40 137.76 178.04 126.78 183.49 124.66
  Z"
/>
<path fill="#4a4a4a" d="
  M 128.25 225.48
  L 128.25 217.47
  Q 128.25 216.86 128.85 216.92
  L 132.15 217.25
  Q 132.74 217.31 132.74 217.90
  L 132.77 243.46
  Q 132.78 244.00 132.23 244.00
  L 129.18 244.00
  A 0.54 0.53 -1.7 0 1 128.64 243.50
  L 128.58 242.29
  A 0.43 0.43 0.0 0 0 127.84 242.02
  C 123.43 246.70 117.61 244.21 116.28 238.48
  C 114.56 231.05 117.90 221.36 127.74 225.81
  Q 128.25 226.04 128.25 225.48
  Z
  M 128.3157 231.6247
  A 3.47 3.47 0.0 0 0 124.9254 228.0769
  L 124.4655 228.0664
  A 3.47 3.47 0.0 0 0 120.9177 231.4568
  L 120.7843 237.3353
  A 3.47 3.47 0.0 0 0 124.1746 240.8831
  L 124.6345 240.8936
  A 3.47 3.47 0.0 0 0 128.1823 237.5032
  L 128.3157 231.6247
  Z"
/>
<path fill="#4a4a4a" d="
  M 91.99 240.65
  Q 94.26 240.94 94.09 243.37
  Q 94.07 243.71 93.76 243.85
  C 90.11 245.46 86.57 243.82 86.53 239.56
  Q 86.43 228.72 86.53 217.86
  Q 86.54 217.28 87.12 217.23
  L 90.57 216.94
  Q 91.25 216.88 91.25 217.57
  L 91.25 239.81
  A 0.85 0.84 -86.6 0 0 91.99 240.65
  Z"
/>
<path fill="#4a4a4a" d="
  M 61.69 240.78
  L 63.68 240.48
  A 1.69 1.68 -61.1 0 1 64.60 243.69
  Q 59.04 246.14 55.67 241.52
  A 1.85 1.85 0.0 0 1 55.32 240.47
  L 55.21 228.85
  A 0.61 0.60 -0.0 0 0 54.60 228.25
  L 52.97 228.25
  Q 52.42 228.25 52.34 227.71
  L 52.07 225.90
  A 0.79 0.78 85.8 0 1 52.84 225.00
  L 54.75 225.00
  Q 55.25 225.00 55.25 224.50
  L 55.25 221.23
  Q 55.25 220.72 55.76 220.66
  L 59.22 220.24
  A 0.48 0.48 0.0 0 1 59.75 220.72
  L 59.75 224.50
  A 0.50 0.50 0.0 0 0 60.25 225.00
  L 63.53 225.00
  Q 64.25 225.00 64.13 225.70
  L 63.79 227.66
  Q 63.69 228.25 63.09 228.25
  L 60.37 228.25
  Q 59.75 228.25 59.75 228.88
  L 59.76 239.11
  A 1.69 1.68 85.7 0 0 61.69 240.78
  Z"
/>
<path fill="#4a4a4a" d="
  M 46.09 239.82
  C 47.94 235.09 37.10 236.46 36.61 230.80
  C 35.96 223.47 45.66 223.57 50.01 226.45
  Q 50.43 226.73 50.17 227.17
  L 49.05 229.07
  A 0.56 0.55 -57.7 0 1 48.27 229.25
  Q 45.63 227.46 42.42 228.14
  A 1.74 1.74 0.0 0 0 42.27 231.51
  C 45.16 232.39 49.25 233.38 50.57 236.29
  C 52.14 239.74 49.90 242.77 46.56 243.88
  Q 41.13 245.69 36.18 242.18
  Q 35.68 241.82 36.07 241.35
  L 37.50 239.57
  A 0.63 0.63 0.0 0 1 38.36 239.46
  Q 41.64 241.86 45.42 240.47
  A 1.14 1.12 -88.6 0 0 46.09 239.82
  Z"
/>
<path fill="#4a4a4a" d="
  M 100.54 236.52
  C 101.10 241.78 105.60 241.76 109.23 239.62
  Q 109.67 239.36 109.99 239.76
  L 111.31 241.40
  Q 111.66 241.83 111.21 242.14
  C 100.57 249.65 91.30 237.54 97.38 228.14
  C 100.62 223.12 107.82 223.38 110.85 228.29
  Q 112.69 231.27 112.16 235.43
  A 0.66 0.66 0.0 0 1 111.51 236.00
  L 101.00 236.00
  Q 100.48 236.00 100.54 236.52
  Z
  M 101.00 232.97
  L 107.34 233.03
  A 0.51 0.51 0.0 0 0 107.86 232.53
  L 107.86 232.25
  A 4.47 3.59 -89.4 0 0 104.32 227.74
  L 104.14 227.74
  A 4.47 3.59 -89.4 0 0 100.50 232.17
  L 100.50 232.45
  A 0.51 0.51 0.0 0 0 101.00 232.97
  Z"
/>
<path fill="#4a4a4a" d="
  M 74.84 239.98
  A 0.29 0.29 0.0 0 0 75.40 239.98
  L 79.28 225.53
  Q 79.42 225.00 79.97 225.00
  L 83.46 225.00
  Q 84.08 225.00 83.89 225.59
  Q 79.15 240.91 77.58 245.04
  Q 75.32 251.00 68.61 251.68
  Q 68.13 251.73 68.06 251.24
  L 67.72 248.99
  A 0.64 0.63 82.7 0 1 68.28 248.26
  Q 71.80 247.88 73.44 244.75
  Q 73.77 244.13 73.07 244.03
  L 72.63 243.97
  Q 72.11 243.90 71.94 243.40
  L 66.26 225.60
  Q 66.07 225.00 66.70 225.00
  L 70.34 225.00
  Q 71.01 225.00 71.18 225.65
  L 74.84 239.98
  Z"
/>
<path fill="#4a4a4a" d="
  M 215.16 276.08
  Q 216.78 277.26 218.54 276.41
  A 0.76 0.75 65.7 0 1 219.56 276.80
  L 220.32 278.59
  A 0.64 0.63 -24.1 0 1 220.00 279.41
  C 208.13 285.04 210.32 270.51 210.23 264.92
  Q 210.22 264.25 209.55 264.25
  L 207.93 264.25
  Q 207.36 264.25 207.30 263.68
  L 207.09 261.64
  Q 207.03 261.00 207.67 261.00
  L 209.50 261.00
  Q 210.25 261.00 210.25 260.25
  L 210.25 257.26
  Q 210.25 256.78 210.73 256.71
  L 214.20 256.23
  A 0.48 0.48 0.0 0 1 214.75 256.71
  L 214.75 260.25
  Q 214.75 261.00 215.50 261.00
  L 218.62 261.00
  A 0.51 0.51 0.0 0 1 219.12 261.58
  L 218.86 263.62
  Q 218.78 264.25 218.14 264.25
  L 215.48 264.25
  A 0.77 0.76 90.0 0 0 214.72 265.02
  L 214.81 275.41
  A 0.84 0.81 18.3 0 0 215.16 276.08
  Z"
/>
<path fill="#4a4a4a" d="
  M 39.44 278.81
  C 30.47 272.85 38.23 254.38 50.03 262.29
  Q 50.56 262.65 50.18 263.16
  L 48.87 264.94
  Q 48.49 265.45 47.94 265.11
  C 37.69 258.65 38.28 282.64 47.93 275.62
  Q 48.49 275.21 48.87 275.79
  L 50.22 277.85
  Q 50.49 278.28 50.08 278.56
  Q 44.69 282.30 39.44 278.81
  Z"
/>
<path fill="#4a4a4a" d="
  M 61.2034 280.5450
  A 10.08 8.97 91.8 0 1 52.5544 270.1882
  A 10.08 8.97 91.8 0 1 61.8366 260.3950
  A 10.08 8.97 91.8 0 1 70.4856 270.7518
  A 10.08 8.97 91.8 0 1 61.2034 280.5450
  Z
  M 61.5083 277.1700
  A 6.69 4.17 90.1 0 0 65.6900 270.4873
  A 6.69 4.17 90.1 0 0 61.5317 263.7900
  A 6.69 4.17 90.1 0 0 57.3500 270.4727
  A 6.69 4.17 90.1 0 0 61.5083 277.1700
  Z"
/>
<path fill="#4a4a4a" d="
  M 95.35 266.85
  C 95.08 261.46 89.69 264.47 89.74 267.96
  Q 89.82 273.70 89.72 279.49
  Q 89.71 280.00 89.20 280.00
  L 85.56 280.00
  Q 85.08 280.00 85.07 279.52
  C 84.93 273.70 85.68 267.16 84.57 264.60
  A 0.98 0.98 0.0 0 0 83.79 264.01
  C 77.49 263.26 79.47 275.78 79.52 279.44
  A 0.55 0.55 0.0 0 1 78.97 280.00
  L 75.50 280.00
  Q 74.75 280.00 74.75 279.25
  L 74.75 261.78
  Q 74.75 261.35 75.15 261.20
  Q 78.55 259.86 79.24 262.80
  Q 79.43 263.63 79.94 262.94
  C 82.40 259.56 86.67 259.46 88.89 263.12
  A 0.21 0.21 0.0 0 0 89.20 263.18
  Q 94.73 259.05 98.23 261.90
  C 101.02 264.19 100.09 275.87 99.90 279.37
  Q 99.86 280.00 99.24 280.00
  L 96.02 280.00
  Q 95.38 280.00 95.40 279.35
  Q 95.66 273.06 95.35 266.85
  Z"
/>
<path fill="#4a4a4a" d="
  M 109.37 279.19
  L 109.55 286.73
  Q 109.57 287.35 108.95 287.42
  L 105.42 287.77
  Q 104.75 287.84 104.75 287.17
  L 104.75 261.55
  Q 104.75 261.30 104.98 261.20
  Q 107.83 260.07 109.33 262.28
  Q 109.60 262.68 109.97 262.37
  Q 113.15 259.70 116.60 260.84
  C 125.89 263.92 121.67 286.71 109.92 278.88
  Q 109.35 278.50 109.37 279.19
  Z
  M 116.6678 267.4566
  A 3.36 3.36 0.0 0 0 113.3610 264.0442
  L 112.9210 264.0373
  A 3.36 3.36 0.0 0 0 109.5087 267.3441
  L 109.4122 273.4834
  A 3.36 3.36 0.0 0 0 112.7190 276.8958
  L 113.1590 276.9027
  A 3.36 3.36 0.0 0 0 116.5713 273.5959
  L 116.6678 267.4566
  Z"
/>
<path fill="#4a4a4a" d="
  M 134.2110 280.5456
  A 10.08 8.96 91.7 0 1 125.5539 270.2042
  A 10.08 8.96 91.7 0 1 134.8090 260.3944
  A 10.08 8.96 91.7 0 1 143.4661 270.7358
  A 10.08 8.96 91.7 0 1 134.2110 280.5456
  Z
  M 134.5183 277.1500
  A 6.68 4.16 90.1 0 0 138.6900 270.4773
  A 6.68 4.16 90.1 0 0 134.5417 263.7900
  A 6.68 4.16 90.1 0 0 130.3700 270.4627
  A 6.68 4.16 90.1 0 0 134.5183 277.1500
  Z"
/>
<path fill="#4a4a4a" d="
  M 157.51 264.22
  C 154.58 263.05 152.55 265.59 152.54 268.47
  Q 152.53 273.91 152.48 279.51
  A 0.50 0.50 0.0 0 1 151.98 280.00
  L 148.50 280.00
  Q 147.75 280.00 147.75 279.25
  L 147.75 261.50
  Q 147.75 261.00 148.25 261.00
  L 151.25 261.00
  Q 152.00 261.00 152.00 261.75
  L 152.00 262.74
  A 0.43 0.43 0.0 0 0 152.74 263.05
  C 155.50 260.37 159.60 259.06 162.02 262.45
  C 164.25 265.56 163.24 275.21 163.26 279.27
  A 0.73 0.73 0.0 0 1 162.53 280.00
  L 159.25 280.00
  Q 158.75 280.00 158.75 279.50
  L 158.75 266.04
  A 1.98 1.97 -79.4 0 0 157.51 264.22
  Z"
/>
<path fill="#4a4a4a" d="
  M 172.54 272.51
  C 173.08 277.53 177.17 277.77 180.91 275.87
  A 1.62 1.62 0.0 0 1 182.63 278.60
  C 179.06 281.33 172.76 281.04 169.84 277.42
  C 165.18 271.67 168.25 258.93 177.44 260.62
  C 182.69 261.59 184.88 266.38 184.12 271.39
  A 0.71 0.70 4.2 0 1 183.42 271.99
  L 173.00 272.00
  Q 172.48 272.00 172.54 272.51
  Z
  M 173.02 268.97
  L 179.32 269.03
  A 0.52 0.52 0.0 0 0 179.85 268.52
  L 179.85 268.24
  A 4.46 3.59 -89.4 0 0 176.31 263.74
  L 176.15 263.74
  A 4.46 3.59 -89.4 0 0 172.51 268.16
  L 172.51 268.44
  A 0.52 0.52 0.0 0 0 173.02 268.97
  Z"
/>
<path fill="#4a4a4a" d="
  M 194.01 262.85
  C 196.51 260.00 201.03 259.35 203.18 262.54
  C 205.19 265.53 204.25 275.41 204.25 279.28
  A 0.72 0.72 0.0 0 1 203.53 280.00
  L 200.28 280.00
  Q 199.75 280.00 199.75 279.47
  Q 199.78 272.95 199.65 266.50
  C 199.56 261.77 193.41 264.06 193.48 268.34
  Q 193.57 273.93 193.46 279.49
  Q 193.45 280.00 192.95 280.00
  L 189.38 280.00
  Q 188.75 280.00 188.75 279.37
  L 188.75 261.70
  Q 188.75 261.32 189.10 261.18
  Q 192.33 259.88 193.20 262.68
  A 0.47 0.47 0.0 0 0 194.01 262.85
  Z"
/>
<path fill="#4a4a4a" d="
  M 226.17 265.52
  A 1.30 1.30 0.0 0 0 226.93 267.34
  C 229.88 268.31 234.24 269.33 235.58 272.31
  C 237.14 275.75 234.89 278.76 231.57 279.88
  Q 226.14 281.72 221.14 278.16
  Q 220.69 277.84 221.03 277.41
  L 222.48 275.59
  A 0.73 0.73 0.0 0 1 223.50 275.47
  Q 226.70 277.91 230.44 276.46
  A 1.08 1.05 -2.7 0 0 231.07 275.79
  C 232.38 271.78 224.67 271.78 222.50 268.91
  C 219.93 265.52 222.48 261.91 226.06 260.92
  Q 230.61 259.66 234.89 262.37
  A 0.70 0.70 0.0 0 1 235.09 263.35
  L 234.00 264.99
  Q 233.71 265.42 233.24 265.19
  C 230.98 264.03 227.53 262.83 226.17 265.52
  Z"
/>
</svg>
