<?xml version="1.0" encoding="UTF-8" standalone="no"?>
<!DOCTYPE svg PUBLIC "-//W3C//DTD SVG 1.1//EN" "http://www.w3.org/Graphics/SVG/1.1/DTD/svg11.dtd">
<svg xmlns="http://www.w3.org/2000/svg" version="1.1" viewBox="0.00 0.00 328.00 80.00">
<g stroke-width="2.00" fill="none" stroke-linecap="butt">
<path stroke="#e277c2" vector-effect="non-scaling-stroke" d="
  M 96.08 2.46
  L 94.19 2.57
  A 0.53 0.53 0.0 0 0 93.71 3.24
  Q 94.06 4.47 93.18 5.19
  Q 92.75 5.54 92.71 6.09
  L 92.13 13.53"
/>
<path stroke="#e969cb" vector-effect="non-scaling-stroke" d="
  M 91.28 33.89
  L 86.19 43.03"
/>
<path stroke="#d979c4" vector-effect="non-scaling-stroke" d="
  M 86.19 43.03
  Q 85.47 44.27 83.60 43.66
  Q 83.13 43.50 82.71 43.79
  L 82.24 44.10
  Q 81.58 44.56 82.34 44.82
  L 83.33 45.15
  Q 84.04 45.39 83.49 45.91
  L 74.65 54.19"
/>
<path stroke="#cb8191" vector-effect="non-scaling-stroke" d="
  M 74.65 54.19
  Q 72.59 52.75 73.04 51.00"
/>
<path stroke="#e277c2" vector-effect="non-scaling-stroke" d="
  M 73.04 51.00
  C 77.39 48.93 80.30 42.94 84.73 41.47
  Q 85.21 41.31 85.44 40.87
  Q 87.85 36.22 90.35 31.61
  C 91.01 30.38 90.75 29.13 91.46 27.73
  Q 92.31 26.06 92.04 24.09
  Q 91.99 23.72 92.35 23.60
  Q 92.67 23.49 92.69 23.18
  C 92.88 20.29 93.58 18.39 93.25 15.39"
/>
<path stroke="#71385e" vector-effect="non-scaling-stroke" d="
  M 93.20 34.24
  Q 92.93 35.52 92.06 35.98"
/>
<path stroke="#b84498" vector-effect="non-scaling-stroke" d="
  M 92.06 35.98
  Q 91.96 35.05 91.28 33.89"
/>
<path stroke="#c876b0" vector-effect="non-scaling-stroke" d="
  M 91.28 33.89
  Q 93.02 27.49 94.91 20.93
  Q 95.99 17.19 95.71 13.28
  Q 95.68 12.82 96.00 12.49
  C 97.06 11.37 97.35 10.38 97.19 8.87
  C 97.04 7.48 98.66 4.41 98.71 2.45"
/>
<path stroke="#b45c6f" vector-effect="non-scaling-stroke" d="
  M 73.04 51.00
  L 72.96 50.52"
/>
<path stroke="#964460" vector-effect="non-scaling-stroke" d="
  M 72.96 50.52
  L 82.22 41.52"
/>
<path stroke="#a2566c" vector-effect="non-scaling-stroke" d="
  M 76.74 55.24
  L 75.95 55.22"
/>
<path stroke="#ab5e71" vector-effect="non-scaling-stroke" d="
  M 75.95 55.22
  Q 74.64 54.71 74.65 54.19"
/>
<path stroke="#932a78" vector-effect="non-scaling-stroke" d="
  M 92.06 35.98
  Q 90.69 40.26 87.08 43.06"
/>
<path stroke="#c946ab" vector-effect="non-scaling-stroke" d="
  M 87.08 43.06
  Q 86.94 42.93 86.19 43.03"
/>
<path stroke="#945e39" vector-effect="non-scaling-stroke" d="
  M 63.22 67.17
  L 71.55 67.04
  Q 72.03 67.03 72.33 66.65
  C 74.20 64.28 78.39 58.02 75.95 55.22"
/>
<path stroke="#7f4e2f" vector-effect="non-scaling-stroke" d="
  M 72.96 50.52
  L 55.42 66.54
  Q 54.99 66.93 55.57 66.96
  L 58.27 67.11"
/>
<path stroke="#7f4e2f" vector-effect="non-scaling-stroke" d="
  M 47.23 67.20
  Q 47.81 66.96 48.51 66.99
  Q 48.94 67.00 49.18 66.65
  Q 50.18 65.25 51.83 65.21
  Q 52.33 65.20 52.69 64.86
  Q 55.93 61.83 59.46 59.16
  C 61.80 57.40 63.42 55.26 65.38 53.18"
/>
<path stroke="#704127" vector-effect="non-scaling-stroke" d="
  M 65.38 53.18
  Q 68.61 51.13 69.78 47.76"
/>
<path stroke="#7f4e2f" vector-effect="non-scaling-stroke" d="
  M 69.78 47.76
  L 73.72 46.60
  Q 74.17 46.47 74.53 46.17
  C 77.72 43.50 80.34 41.31 81.08 38.69
  A 0.76 0.76 0.0 0 0 79.76 38.00
  Q 75.79 42.82 70.56 43.54"
/>
<path stroke="#6c3a39" vector-effect="non-scaling-stroke" d="
  M 86.77 49.06
  Q 83.45 53.42 78.17 55.37
  Q 77.14 55.75 76.74 55.24"
/>
<path stroke="#823a71" vector-effect="non-scaling-stroke" d="
  M 76.74 55.24
  C 82.43 53.19 83.99 50.04 87.59 45.64
  Q 88.55 44.46 87.08 43.06"
/>
<path stroke="#8e5936" vector-effect="non-scaling-stroke" d="
  M 69.78 47.76
  L 65.38 53.18"
/>
<path stroke="#78374f" vector-effect="non-scaling-stroke" d="
  M 81.89 34.83
  Q 76.45 41.07 70.56 43.54"
/>
<path stroke="#964f5e" vector-effect="non-scaling-stroke" d="
  M 70.56 43.54
  L 68.93 41.96"
/>
<path stroke="#dd8bd4" vector-effect="non-scaling-stroke" d="
  M 84.14 26.92
  Q 80.56 31.18 76.30 34.95
  C 74.28 36.74 71.55 39.79 68.32 41.58"
/>
<path stroke="#c88e99" vector-effect="non-scaling-stroke" d="
  M 68.32 41.58
  Q 67.35 40.05 67.55 38.81"
/>
<path stroke="#df84cb" vector-effect="non-scaling-stroke" d="
  M 67.55 38.81
  L 80.33 27.36"
/>
<path stroke="#b45c6f" vector-effect="non-scaling-stroke" d="
  M 67.55 38.81
  L 67.45 37.49"
/>
<path stroke="#a44e67" vector-effect="non-scaling-stroke" d="
  M 67.45 37.49
  L 69.45 35.22"
/>
<path stroke="#ab4c99" vector-effect="non-scaling-stroke" d="
  M 84.75 29.99
  L 82.26 31.50
  Q 81.86 31.75 81.79 32.22
  Q 81.52 34.17 79.73 34.76
  Q 79.22 34.92 78.86 35.31
  C 76.07 38.23 73.34 41.58 68.93 41.96"
/>
<path stroke="#b26379" vector-effect="non-scaling-stroke" d="
  M 68.93 41.96
  Q 68.44 42.08 68.32 41.58"
/>
<path stroke="#8e5936" vector-effect="non-scaling-stroke" d="
  M 67.45 37.49
  L 38.43 63.14
  Q 38.07 63.46 38.02 63.94
  L 37.80 65.78"
/>
<path stroke="#773c46" vector-effect="non-scaling-stroke" d="
  M 68.35 32.04
  Q 64.83 37.29 59.35 39.22"
/>
<path stroke="#86494e" vector-effect="non-scaling-stroke" d="
  M 59.35 39.22
  Q 57.42 39.41 55.99 38.33"
/>
<path stroke="#944181" vector-effect="non-scaling-stroke" d="
  M 55.99 38.33
  Q 59.73 38.38 61.43 35.01
  Q 61.66 34.57 62.09 34.33
  Q 67.11 31.50 70.20 26.58"
/>
<path stroke="#8e5936" vector-effect="non-scaling-stroke" d="
  M 59.35 39.22
  Q 61.35 41.49 55.81 42.80
  Q 55.27 42.92 55.03 43.41
  Q 53.29 46.92 49.91 48.61
  Q 49.42 48.85 49.13 49.31
  Q 47.89 51.22 45.73 51.98
  Q 45.28 52.14 44.98 52.49
  Q 42.69 55.21 39.50 56.72
  Q 39.03 56.94 38.69 56.55
  Q 37.95 55.68 37.82 54.48"
/>
<path stroke="#b171a9" vector-effect="non-scaling-stroke" d="
  M 71.57 24.02
  Q 68.57 24.83 70.20 26.58"
/>
<path stroke="#d586cc" vector-effect="non-scaling-stroke" d="
  M 70.20 26.58
  L 66.21 28.40
  Q 66.00 28.49 66.00 28.72
  Q 66.00 28.86 66.00 29.01
  Q 65.99 29.26 65.79 29.42
  C 63.18 31.52 60.79 34.56 58.02 36.28
  Q 56.77 37.06 55.58 37.90"
/>
<path stroke="#c88e99" vector-effect="non-scaling-stroke" d="
  M 55.58 37.90
  Q 53.22 35.95 54.94 33.93"
/>
<path stroke="#df84cb" vector-effect="non-scaling-stroke" d="
  M 54.94 33.93
  L 66.99 23.44"
/>
<path stroke="#ab5e71" vector-effect="non-scaling-stroke" d="
  M 55.99 38.33
  Q 55.54 37.98 55.58 37.90"
/>
<path stroke="#b45c6f" vector-effect="non-scaling-stroke" d="
  M 54.94 33.93
  Q 55.42 33.03 55.22 32.05"
/>
</g>
<path fill="#cb52a1" fill-opacity="0.996" d="
  M 96.08 2.46
  L 94.19 2.57
  A 0.53 0.53 0.0 0 0 93.71 3.24
  Q 94.06 4.47 93.18 5.19
  Q 92.75 5.54 92.71 6.09
  L 92.13 13.53
  C 87.53 11.19 89.69 7.26 90.20 3.58
  A 0.95 0.94 81.1 0 1 90.72 2.86
  Q 93.06 1.70 96.08 2.46
  Z"
/>
<path fill="#96517d" d="
  M 93.20 34.24
  Q 92.93 35.52 92.06 35.98
  Q 91.96 35.05 91.28 33.89
  Q 93.02 27.49 94.91 20.93
  Q 95.99 17.19 95.71 13.28
  Q 95.68 12.82 96.00 12.49
  C 97.06 11.37 97.35 10.38 97.19 8.87
  C 97.04 7.48 98.66 4.41 98.71 2.45
  L 101.84 2.54
  Q 102.50 2.55 102.50 3.22
  L 102.50 13.83
  A 0.97 0.97 0.0 0 1 101.68 14.79
  L 98.73 15.26
  Q 98.16 15.36 98.01 15.91
  C 96.68 20.90 95.44 25.99 93.73 30.82
  Q 93.13 32.51 93.20 34.24
  Z"
/>
<path fill="#f99be3" d="
  M 96.08 2.46
  L 98.71 2.45
  C 98.66 4.41 97.04 7.48 97.19 8.87
  C 97.35 10.38 97.06 11.37 96.00 12.49
  Q 95.68 12.82 95.71 13.28
  Q 95.99 17.19 94.91 20.93
  Q 93.02 27.49 91.28 33.89
  L 86.19 43.03
  Q 85.47 44.27 83.60 43.66
  Q 83.13 43.50 82.71 43.79
  L 82.24 44.10
  Q 81.58 44.56 82.34 44.82
  L 83.33 45.15
  Q 84.04 45.39 83.49 45.91
  L 74.65 54.19
  Q 72.59 52.75 73.04 51.00
  C 77.39 48.93 80.30 42.94 84.73 41.47
  Q 85.21 41.31 85.44 40.87
  Q 87.85 36.22 90.35 31.61
  C 91.01 30.38 90.75 29.13 91.46 27.73
  Q 92.31 26.06 92.04 24.09
  Q 91.99 23.72 92.35 23.60
  Q 92.67 23.49 92.69 23.18
  C 92.88 20.29 93.58 18.39 93.25 15.39
  Q 93.62 14.01 92.13 13.53
  L 92.71 6.09
  Q 92.75 5.54 93.18 5.19
  Q 94.06 4.47 93.71 3.24
  A 0.53 0.53 0.0 0 1 94.19 2.57
  L 96.08 2.46
  Z"
/>
<path fill="#ffffff" d="
  M 209.69 34.09
  C 205.75 35.46 204.44 32.81 204.49 29.42
  Q 204.62 21.72 204.37 13.95
  Q 204.35 13.32 204.97 13.23
  L 207.51 12.82
  Q 208.00 12.74 208.00 13.24
  L 208.00 30.77
  A 0.67 0.67 0.0 0 0 208.62 31.44
  Q 210.29 31.55 210.24 33.33
  Q 210.23 33.90 209.69 34.09
  Z"
/>
<path fill="#ffffff" d="
  M 238.68 19.49
  L 238.68 13.36
  Q 238.68 12.90 239.13 12.95
  L 241.49 13.18
  Q 242.22 13.25 242.22 13.98
  L 242.26 33.23
  A 0.72 0.71 -10.1 0 1 241.77 33.92
  Q 239.90 34.54 238.74 33.22
  Q 238.36 32.79 237.91 33.13
  C 227.17 41.12 224.62 13.52 238.23 19.77
  Q 238.68 19.98 238.68 19.49
  Z
  M 238.5572 24.2447
  A 2.66 2.66 0.0 0 0 235.9393 21.5433
  L 235.5993 21.5380
  A 2.66 2.66 0.0 0 0 232.8979 24.1558
  L 232.8228 28.9353
  A 2.66 2.66 0.0 0 0 235.4407 31.6367
  L 235.7807 31.6420
  A 2.66 2.66 0.0 0 0 238.4821 29.0242
  L 238.5572 24.2447
  Z"
/>
<path fill="#cb52a1" fill-opacity="0.996" d="
  M 93.25 15.39
  C 93.58 18.39 92.88 20.29 92.69 23.18
  Q 92.67 23.49 92.35 23.60
  Q 91.99 23.72 92.04 24.09
  Q 92.31 26.06 91.46 27.73
  C 90.75 29.13 91.01 30.38 90.35 31.61
  Q 87.85 36.22 85.44 40.87
  Q 85.21 41.31 84.73 41.47
  C 80.30 42.94 77.39 48.93 73.04 51.00
  L 72.96 50.52
  L 82.22 41.52
  L 85.20 39.62
  Q 85.64 39.34 85.71 38.83
  Q 86.26 34.90 89.12 32.10
  A 1.04 1.01 75.3 0 0 89.41 31.59
  L 93.25 15.39
  Z"
/>
<path fill="#ffffff" d="
  M 182.75 19.00
  L 184.93 19.00
  Q 185.62 19.00 185.53 19.68
  L 185.36 21.12
  Q 185.29 21.75 184.65 21.75
  L 182.94 21.75
  Q 182.25 21.75 182.25 22.44
  Q 182.25 26.08 182.24 29.66
  Q 182.24 30.71 182.71 31.23
  Q 183.48 32.05 184.60 31.36
  A 1.12 1.12 0.0 0 1 186.26 32.00
  Q 186.76 33.71 185.66 33.94
  C 176.39 35.83 178.77 27.93 178.75 22.32
  Q 178.74 21.72 178.14 21.74
  L 176.85 21.79
  Q 176.28 21.81 176.27 21.23
  L 176.24 19.64
  Q 176.24 19.27 176.61 19.26
  L 177.99 19.23
  A 0.89 0.88 83.2 0 0 178.83 18.16
  L 178.50 16.67
  A 0.70 0.69 -9.7 0 1 179.10 15.83
  L 181.61 15.55
  A 0.58 0.57 -3.1 0 1 182.25 16.12
  L 182.25 18.50
  Q 182.25 19.00 182.75 19.00
  Z"
/>
<path fill="#ffffff" d="
  M 170.66 29.11
  C 167.48 26.51 162.31 28.06 163.42 21.36
  A 1.11 1.11 0.0 0 1 163.80 20.70
  Q 168.40 16.96 173.62 20.22
  Q 174.19 20.57 173.78 21.11
  L 172.89 22.29
  Q 172.52 22.78 172.02 22.41
  Q 170.27 21.11 168.00 21.57
  A 1.49 1.48 -45.1 0 0 168.00 24.48
  Q 171.21 25.11 173.83 27.11
  A 1.41 1.40 15.1 0 1 174.36 28.02
  C 175.48 35.26 167.05 35.52 162.91 32.80
  Q 162.33 32.42 162.77 31.88
  L 163.72 30.73
  Q 164.07 30.30 164.55 30.57
  C 166.50 31.65 169.57 32.84 170.89 30.21
  A 0.90 0.89 33.4 0 0 170.66 29.11
  Z"
/>
<path fill="#ffffff" d="
  M 218.58 34.35
  C 208.45 32.74 211.98 15.96 221.14 19.15
  Q 226.28 20.94 225.51 27.30
  Q 225.45 27.75 225.00 27.75
  L 216.97 27.75
  Q 216.26 27.75 216.33 28.45
  C 216.70 32.27 220.38 31.97 222.97 30.83
  A 1.27 1.26 15.5 0 1 224.21 33.02
  Q 221.65 34.84 218.58 34.35
  Z
  M 216.80 25.38
  L 221.50 25.46
  A 0.49 0.49 0.0 0 0 222.00 24.97
  L 222.00 24.65
  A 3.13 2.44 -89.1 0 0 219.61 21.49
  L 218.81 21.47
  A 3.13 2.44 -89.1 0 0 216.32 24.57
  L 216.32 24.89
  A 0.49 0.49 0.0 0 0 216.80 25.38
  Z"
/>
<path fill="#ffffff" d="
  M 194.95 29.76
  L 197.61 19.83
  Q 197.74 19.33 198.25 19.27
  L 200.72 18.94
  A 0.57 0.57 0.0 0 1 201.34 19.68
  Q 198.80 27.63 196.20 35.42
  Q 194.79 39.64 189.29 39.93
  Q 188.75 39.96 188.75 39.42
  L 188.75 38.05
  Q 188.75 37.43 189.36 37.33
  Q 191.63 36.91 192.99 35.07
  Q 193.34 34.59 192.86 34.23
  L 192.10 33.67
  A 0.48 0.46 -83.6 0 1 191.94 33.46
  L 187.62 19.91
  Q 187.45 19.37 188.01 19.30
  L 190.50 18.95
  A 0.73 0.72 78.9 0 1 191.30 19.49
  L 193.93 29.75
  Q 194.43 31.71 194.95 29.76
  Z"
/>
<path fill="#f2b6f4" d="
  M 71.57 24.02
  Q 68.57 24.83 70.20 26.58
  L 66.21 28.40
  Q 66.00 28.49 66.00 28.72
  Q 66.00 28.86 66.00 29.01
  Q 65.99 29.26 65.79 29.42
  C 63.18 31.52 60.79 34.56 58.02 36.28
  Q 56.77 37.06 55.58 37.90
  Q 53.22 35.95 54.94 33.93
  L 66.99 23.44
  Q 69.84 21.56 71.57 24.02
  Z"
/>
<path fill="#cb52a1" fill-opacity="0.996" d="
  M 66.99 23.44
  L 54.94 33.93
  Q 55.42 33.03 55.22 32.05
  Q 60.60 26.94 66.99 23.44
  Z"
/>
<path fill="#6f2c5e" d="
  M 71.57 24.02
  Q 72.08 28.65 68.35 32.04
  Q 64.83 37.29 59.35 39.22
  Q 57.42 39.41 55.99 38.33
  Q 59.73 38.38 61.43 35.01
  Q 61.66 34.57 62.09 34.33
  Q 67.11 31.50 70.20 26.58
  Q 68.57 24.83 71.57 24.02
  Z"
/>
<path fill="#b856a4" d="
  M 70.20 26.58
  Q 67.11 31.50 62.09 34.33
  Q 61.66 34.57 61.43 35.01
  Q 59.73 38.38 55.99 38.33
  Q 55.54 37.98 55.58 37.90
  Q 56.77 37.06 58.02 36.28
  C 60.79 34.56 63.18 31.52 65.79 29.42
  Q 65.99 29.26 66.00 29.01
  Q 66.00 28.86 66.00 28.72
  Q 66.00 28.49 66.21 28.40
  L 70.20 26.58
  Z"
/>
<path fill="#f2b6f4" d="
  M 84.14 26.92
  Q 80.56 31.18 76.30 34.95
  C 74.28 36.74 71.55 39.79 68.32 41.58
  Q 67.35 40.05 67.55 38.81
  L 80.33 27.36
  Q 81.32 25.85 84.14 26.92
  Z"
/>
<path fill="#c75fb4" d="
  M 84.14 26.92
  Q 85.26 27.28 84.75 29.99
  L 82.26 31.50
  Q 81.86 31.75 81.79 32.22
  Q 81.52 34.17 79.73 34.76
  Q 79.22 34.92 78.86 35.31
  C 76.07 38.23 73.34 41.58 68.93 41.96
  Q 68.44 42.08 68.32 41.58
  C 71.55 39.79 74.28 36.74 76.30 34.95
  Q 80.56 31.18 84.14 26.92
  Z"
/>
<path fill="#cb52a1" fill-opacity="0.996" d="
  M 80.33 27.36
  L 67.55 38.81
  L 67.45 37.49
  L 69.45 35.22
  Q 74.25 30.06 80.33 27.36
  Z"
/>
<path fill="#8e387e" d="
  M 84.75 29.99
  Q 84.06 34.19 81.89 34.83
  Q 76.45 41.07 70.56 43.54
  L 68.93 41.96
  C 73.34 41.58 76.07 38.23 78.86 35.31
  Q 79.22 34.92 79.73 34.76
  Q 81.52 34.17 81.79 32.22
  Q 81.86 31.75 82.26 31.50
  L 84.75 29.99
  Z"
/>
<path fill="#9d663e" d="
  M 55.22 32.05
  Q 55.42 33.03 54.94 33.93
  Q 53.22 35.95 55.58 37.90
  Q 55.54 37.98 55.99 38.33
  Q 57.42 39.41 59.35 39.22
  Q 61.35 41.49 55.81 42.80
  Q 55.27 42.92 55.03 43.41
  Q 53.29 46.92 49.91 48.61
  Q 49.42 48.85 49.13 49.31
  Q 47.89 51.22 45.73 51.98
  Q 45.28 52.14 44.98 52.49
  Q 42.69 55.21 39.50 56.72
  Q 39.03 56.94 38.69 56.55
  Q 37.95 55.68 37.82 54.48
  L 37.84 47.11
  A 1.14 1.12 -20.4 0 1 38.24 46.25
  L 55.22 32.05
  Z"
/>
<path fill="#ffffff" d="
  M 8.03 44.39
  L 24.51 51.91
  A 0.83 0.83 0.0 0 1 25.00 52.67
  L 25.00 55.23
  Q 25.00 56.05 24.25 55.71
  L 2.73 45.95
  A 2.07 2.06 45.1 0 1 2.73 42.19
  L 24.56 32.31
  A 0.48 0.48 0.0 0 1 25.24 32.78
  L 25.06 35.44
  Q 25.02 36.01 24.50 36.25
  L 8.03 43.76
  Q 7.33 44.08 8.03 44.39
  Z"
/>
<path fill="#7e4b2d" d="
  M 68.35 32.04
  Q 68.75 34.82 69.45 35.22
  L 67.45 37.49
  L 38.43 63.14
  Q 38.07 63.46 38.02 63.94
  L 37.80 65.78
  L 37.82 54.48
  Q 37.95 55.68 38.69 56.55
  Q 39.03 56.94 39.50 56.72
  Q 42.69 55.21 44.98 52.49
  Q 45.28 52.14 45.73 51.98
  Q 47.89 51.22 49.13 49.31
  Q 49.42 48.85 49.91 48.61
  Q 53.29 46.92 55.03 43.41
  Q 55.27 42.92 55.81 42.80
  Q 61.35 41.49 59.35 39.22
  Q 64.83 37.29 68.35 32.04
  Z"
/>
<path fill="#ffffff" d="
  M 118.04 44.48
  Q 118.95 44.07 118.04 43.65
  L 101.84 36.25
  Q 101.25 35.98 101.25 35.33
  L 101.25 32.77
  Q 101.25 32.08 101.89 32.37
  L 123.52 42.18
  A 2.07 2.07 0.0 0 1 123.52 45.95
  L 101.99 55.72
  A 0.52 0.52 0.0 0 1 101.25 55.25
  L 101.25 52.69
  Q 101.25 52.15 101.75 51.92
  L 118.04 44.48
  Z"
/>
<path fill="#d936b2" d="
  M 91.28 33.89
  Q 91.96 35.05 92.06 35.98
  Q 90.69 40.26 87.08 43.06
  Q 86.94 42.93 86.19 43.03
  L 91.28 33.89
  Z"
/>
<path fill="#4c1e3e" fill-opacity="0.996" d="
  M 93.20 34.24
  Q 93.59 38.00 90.80 40.57
  Q 90.42 40.92 90.32 41.42
  Q 89.46 45.62 86.77 49.06
  Q 83.45 53.42 78.17 55.37
  Q 77.14 55.75 76.74 55.24
  C 82.43 53.19 83.99 50.04 87.59 45.64
  Q 88.55 44.46 87.08 43.06
  Q 90.69 40.26 92.06 35.98
  Q 92.93 35.52 93.20 34.24
  Z"
/>
<path fill="#613620" d="
  M 81.89 34.83
  L 82.22 41.52
  L 72.96 50.52
  L 55.42 66.54
  Q 54.99 66.93 55.57 66.96
  L 58.27 67.11
  L 47.23 67.20
  Q 47.81 66.96 48.51 66.99
  Q 48.94 67.00 49.18 66.65
  Q 50.18 65.25 51.83 65.21
  Q 52.33 65.20 52.69 64.86
  Q 55.93 61.83 59.46 59.16
  C 61.80 57.40 63.42 55.26 65.38 53.18
  Q 68.61 51.13 69.78 47.76
  L 73.72 46.60
  Q 74.17 46.47 74.53 46.17
  C 77.72 43.50 80.34 41.31 81.08 38.69
  A 0.76 0.76 0.0 0 0 79.76 38.00
  Q 75.79 42.82 70.56 43.54
  Q 76.45 41.07 81.89 34.83
  Z"
/>
<path fill="#9d663e" d="
  M 67.45 37.49
  L 67.55 38.81
  Q 67.35 40.05 68.32 41.58
  Q 68.44 42.08 68.93 41.96
  L 70.56 43.54
  Q 75.79 42.82 79.76 38.00
  A 0.76 0.76 0.0 0 1 81.08 38.69
  C 80.34 41.31 77.72 43.50 74.53 46.17
  Q 74.17 46.47 73.72 46.60
  L 69.78 47.76
  L 65.38 53.18
  C 63.42 55.26 61.80 57.40 59.46 59.16
  Q 55.93 61.83 52.69 64.86
  Q 52.33 65.20 51.83 65.21
  Q 50.18 65.25 49.18 66.65
  Q 48.94 67.00 48.51 66.99
  Q 47.81 66.96 47.23 67.20
  L 38.69 67.22
  Q 38.17 67.22 37.89 66.78
  Q 37.61 66.34 37.80 65.78
  L 38.02 63.94
  Q 38.07 63.46 38.43 63.14
  L 67.45 37.49
  Z"
/>
<path fill="#b856a4" d="
  M 86.19 43.03
  Q 86.94 42.93 87.08 43.06
  Q 88.55 44.46 87.59 45.64
  C 83.99 50.04 82.43 53.19 76.74 55.24
  L 75.95 55.22
  Q 74.64 54.71 74.65 54.19
  L 83.49 45.91
  Q 84.04 45.39 83.33 45.15
  L 82.34 44.82
  Q 81.58 44.56 82.24 44.10
  L 82.71 43.79
  Q 83.13 43.50 83.60 43.66
  Q 85.47 44.27 86.19 43.03
  Z"
/>
<path fill="#ffffff" d="
  M 304.71 51.75
  L 303.25 51.75
  Q 302.75 51.75 302.75 51.25
  L 302.75 49.82
  Q 302.75 49.38 303.19 49.32
  L 304.61 49.13
  A 0.68 0.67 82.9 0 0 305.18 48.39
  L 305.01 46.68
  Q 304.94 45.96 305.65 45.87
  L 308.26 45.51
  A 0.49 0.49 0.0 0 1 308.77 46.20
  Q 308.17 47.48 308.69 48.77
  A 0.82 0.82 0.0 0 0 309.61 49.27
  L 311.22 48.94
  Q 312.21 48.75 312.06 49.74
  L 311.85 51.13
  Q 311.76 51.75 311.13 51.75
  L 309.02 51.75
  A 0.53 0.53 0.0 0 0 308.49 52.28
  Q 308.49 56.16 308.78 59.98
  Q 308.85 60.88 309.27 61.26
  Q 310.03 61.94 311.33 61.19
  Q 311.84 60.89 312.12 61.42
  L 312.87 62.85
  Q 313.27 63.62 312.45 63.88
  C 303.09 66.87 305.29 57.08 305.16 52.19
  Q 305.15 51.75 304.71 51.75
  Z"
/>
<path fill="#7e4b2d" d="
  M 69.78 47.76
  Q 68.61 51.13 65.38 53.18
  L 69.78 47.76
  Z"
/>
<path fill="#ffffff" d="
  M 172.87 52.40
  C 164.46 47.82 165.53 65.87 172.79 60.69
  A 0.70 0.69 -32.9 0 1 173.79 60.90
  L 174.65 62.38
  A 0.59 0.58 -29.5 0 1 174.42 63.19
  C 170.44 65.33 165.57 64.67 163.84 60.08
  C 161.22 53.11 166.98 45.63 174.37 50.00
  Q 174.92 50.33 174.57 50.87
  L 173.73 52.18
  Q 173.40 52.68 172.87 52.40
  Z"
/>
<path fill="#ffffff" d="
  M 183.7806 64.5297
  A 7.95 7.05 90.5 0 1 176.8003 56.5185
  A 7.95 7.05 90.5 0 1 183.9194 48.6303
  A 7.95 7.05 90.5 0 1 190.8997 56.6415
  A 7.95 7.05 90.5 0 1 183.7806 64.5297
  Z
  M 183.9035 61.7796
  A 5.20 3.24 89.3 0 0 187.0798 56.5404
  A 5.20 3.24 89.3 0 0 183.7765 51.3804
  A 5.20 3.24 89.3 0 0 180.6002 56.6196
  A 5.20 3.24 89.3 0 0 183.9035 61.7796
  Z"
/>
<path fill="#ffffff" d="
  M 201.90 51.60
  C 197.10 50.51 198.49 60.86 198.68 63.32
  Q 198.74 64.00 198.05 64.00
  L 195.62 64.00
  Q 195.00 64.00 195.00 63.37
  L 195.00 50.19
  A 1.62 1.62 0.0 0 1 198.21 49.91
  L 198.29 50.34
  Q 198.41 51.04 198.91 50.53
  Q 202.46 46.91 206.02 50.53
  Q 206.44 50.95 206.91 50.58
  L 208.16 49.59
  Q 208.52 49.30 208.96 49.13
  C 216.62 46.24 214.46 59.62 214.67 63.31
  Q 214.71 64.00 214.02 64.00
  L 211.62 64.00
  Q 211.00 64.00 211.00 63.37
  L 211.00 53.01
  A 1.43 1.43 0.0 0 0 209.64 51.58
  C 205.24 51.36 206.41 60.22 206.74 63.39
  Q 206.80 64.00 206.19 64.00
  L 203.50 64.00
  Q 203.00 64.00 203.00 63.50
  L 203.00 52.98
  A 1.42 1.41 -83.6 0 0 201.90 51.60
  Z"
/>
<path fill="#ffffff" d="
  M 223.58 50.27
  C 235.22 41.99 236.52 69.50 223.73 63.44
  Q 223.25 63.21 223.25 63.75
  L 223.25 69.22
  Q 223.25 69.69 222.78 69.74
  L 220.13 70.05
  Q 219.64 70.11 219.65 69.62
  L 219.79 50.45
  Q 219.80 49.55 220.63 49.20
  Q 222.31 48.51 222.98 50.10
  Q 223.17 50.56 223.58 50.27
  Z
  M 228.9540 54.2601
  A 2.67 2.67 0.0 0 0 226.3121 51.5623
  L 225.9322 51.5583
  A 2.67 2.67 0.0 0 0 223.2343 54.2002
  L 223.1860 58.8199
  A 2.67 2.67 0.0 0 0 225.8279 61.5177
  L 226.2078 61.5217
  A 2.67 2.67 0.0 0 0 228.9057 58.8798
  L 228.9540 54.2601
  Z"
/>
<path fill="#ffffff" d="
  M 242.8990 64.5147
  A 7.94 7.06 92.1 0 1 236.1347 56.3213
  A 7.94 7.06 92.1 0 1 243.4810 48.6453
  A 7.94 7.06 92.1 0 1 250.2453 56.8387
  A 7.94 7.06 92.1 0 1 242.8990 64.5147
  Z
  M 243.1509 61.7600
  A 5.19 3.27 90.1 0 0 246.4300 56.5757
  A 5.19 3.27 90.1 0 0 243.1691 51.3800
  A 5.19 3.27 90.1 0 0 239.8900 56.5643
  A 5.19 3.27 90.1 0 0 243.1509 61.7600
  Z"
/>
<path fill="#ffffff" d="
  M 262.28 51.76
  C 256.35 50.25 257.56 59.26 258.05 63.36
  A 0.57 0.57 0.0 0 1 257.48 64.00
  L 255.09 64.00
  Q 254.44 64.00 254.44 63.34
  L 254.49 49.74
  Q 254.49 49.22 255.00 49.16
  L 256.77 48.96
  A 0.63 0.63 0.0 0 1 257.47 49.54
  L 257.54 50.36
  A 0.39 0.38 66.7 0 0 258.18 50.62
  C 260.53 48.42 264.40 47.68 265.95 51.00
  C 267.15 53.60 266.49 60.10 266.50 63.30
  Q 266.51 64.00 265.81 64.00
  L 263.61 64.00
  Q 262.97 64.00 262.96 63.36
  L 262.94 52.60
  A 0.88 0.86 7.3 0 0 262.28 51.76
  Z"
/>
<path fill="#ffffff" d="
  M 270.48 57.49
  C 269.28 46.52 284.89 45.45 283.46 57.16
  Q 283.38 57.75 282.79 57.75
  L 274.79 57.75
  Q 274.28 57.75 274.32 58.25
  C 274.60 61.96 278.11 62.25 280.80 60.88
  A 1.27 1.27 0.0 0 1 282.35 62.83
  Q 281.55 63.76 279.68 64.09
  Q 271.36 65.53 270.48 57.49
  Z
  M 274.91 55.37
  L 279.37 55.45
  A 0.61 0.61 0.0 0 0 279.99 54.85
  L 279.99 54.66
  A 3.14 2.63 -89.0 0 0 277.41 51.47
  L 276.99 51.47
  A 3.14 2.63 -89.0 0 0 274.31 54.56
  L 274.31 54.75
  A 0.61 0.61 0.0 0 0 274.91 55.37
  Z"
/>
<path fill="#ffffff" d="
  M 291.71 50.39
  C 302.18 43.92 299.75 58.87 299.75 63.45
  Q 299.75 64.00 299.20 64.00
  L 296.50 64.00
  Q 296.00 64.00 296.00 63.50
  L 296.00 52.51
  A 0.76 0.75 10.9 0 0 295.52 51.81
  C 289.65 49.52 291.23 60.74 291.26 63.43
  Q 291.27 64.00 290.70 64.00
  L 288.02 64.00
  Q 287.55 64.00 287.56 63.52
  L 287.83 50.49
  A 1.22 1.19 -15.9 0 1 288.40 49.49
  Q 290.44 48.24 291.06 50.16
  Q 291.24 50.69 291.71 50.39
  Z"
/>
<path fill="#ffffff" d="
  M 319.38 54.05
  C 322.26 55.54 327.13 55.87 326.43 60.44
  C 325.63 65.56 317.95 64.73 314.80 62.74
  Q 314.29 62.42 314.68 61.96
  L 315.82 60.62
  A 0.64 0.63 -49.8 0 1 316.71 60.54
  Q 318.99 62.43 321.89 61.46
  A 1.67 1.67 0.0 0 0 321.76 58.25
  C 308.79 55.09 317.35 45.09 325.55 50.21
  Q 326.10 50.56 325.71 51.08
  L 324.81 52.27
  Q 324.47 52.71 324.01 52.41
  Q 322.03 51.12 319.72 51.59
  A 1.32 1.31 -37.2 0 0 319.38 54.05
  Z"
/>
<path fill="#8b5634" d="
  M 86.77 49.06
  C 88.69 55.36 82.19 62.83 77.78 66.64
  Q 77.40 66.96 76.91 66.97
  L 63.22 67.17
  L 71.55 67.04
  Q 72.03 67.03 72.33 66.65
  C 74.20 64.28 78.39 58.02 75.95 55.22
  L 76.74 55.24
  Q 77.14 55.75 78.17 55.37
  Q 83.45 53.42 86.77 49.06
  Z"
/>
<path fill="#9d663e" d="
  M 72.96 50.52
  L 73.04 51.00
  Q 72.59 52.75 74.65 54.19
  Q 74.64 54.71 75.95 55.22
  C 78.39 58.02 74.20 64.28 72.33 66.65
  Q 72.03 67.03 71.55 67.04
  L 63.22 67.17
  L 58.27 67.11
  L 55.57 66.96
  Q 54.99 66.93 55.42 66.54
  L 72.96 50.52
  Z"
/>
</svg>
